<?xml version="1.0" encoding="UTF-8"?>
<svg version="1.1" xmlns="http://www.w3.org/2000/svg" width="500" height="500">
<path d="M0 0 C1.03098312 0.06859726 1.03098312 0.06859726 2.08279419 0.13858032 C37.19716733 2.5212457 71.47876219 11.45982754 102.5 28.3125 C103.49644531 28.85261719 104.49289062 29.39273438 105.51953125 29.94921875 C118.91962573 37.51999717 131.92487449 46.15211205 143.5 56.3125 C144.39460938 57.09753906 145.28921875 57.88257813 146.2109375 58.69140625 C150.43572512 62.45159113 154.50093483 66.31343483 158.5 70.3125 C159.28375 70.910625 160.0675 71.50875 160.875 72.125 C164.52774976 75.16895814 167.43142503 78.6916954 170.5 82.3125 C171.44049868 83.3914168 172.38197222 84.4694843 173.32421875 85.546875 C174.32069034 86.69758958 175.31678367 87.84863183 176.3125 89 C177.03300537 89.8197229 177.03300537 89.8197229 177.76806641 90.65600586 C180.39601942 93.7216403 182.2623396 96.45643668 183.5 100.3125 C184.16 100.3125 184.82 100.3125 185.5 100.3125 C186.79345703 101.89453125 186.79345703 101.89453125 188.2578125 104.125 C188.79712402 104.94524658 189.33643555 105.76549316 189.89208984 106.6105957 C190.4639502 107.50222412 191.03581055 108.39385254 191.625 109.3125 C192.21104004 110.22153076 192.79708008 111.13056152 193.40087891 112.06713867 C197.9941755 119.29901631 202.01246861 126.65962131 205.61914062 134.42431641 C206.50244232 136.31773529 207.41197537 138.19650269 208.328125 140.07421875 C228.72053703 182.20716502 235.97789795 229.9692438 229.5 276.3125 C229.37641113 277.2008252 229.25282227 278.08915039 229.12548828 279.00439453 C222.89737156 321.99727296 205.89238603 361.27370493 179.4375 395.625 C178.8597583 396.3782959 178.2820166 397.1315918 177.68676758 397.90771484 C174.38727761 402.13394373 170.9500733 406.02538918 167.08032227 409.73876953 C165.43976515 411.3724836 163.97062936 413.08797721 162.5 414.875 C148.89792469 430.54167603 132.07711886 442.53058051 114.5 453.3125 C113.46230469 453.95574219 112.42460937 454.59898437 111.35546875 455.26171875 C54.35008647 489.24437107 -12.48492316 496.80628567 -76.5 481.3125 C-102.35105071 474.33229958 -127.17550734 463.08427707 -149.5 448.3125 C-151.046875 447.29349609 -151.046875 447.29349609 -152.625 446.25390625 C-160.72978848 440.78901882 -168.17153301 434.77309255 -175.5 428.3125 C-176.31090088 427.60432129 -176.31090088 427.60432129 -177.13818359 426.88183594 C-183.97422731 420.89901272 -183.97422731 420.89901272 -186.5 418.3125 C-186.5 417.6525 -186.5 416.9925 -186.5 416.3125 C-187.35851562 415.95671875 -187.35851562 415.95671875 -188.234375 415.59375 C-219.23576277 398.06193071 -240.90911195 340.89955921 -250.15234375 308.38671875 C-251.51711653 303.37419285 -252.6986798 298.337163 -253.75 293.25 C-253.90106201 292.53279785 -254.05212402 291.8155957 -254.20776367 291.07666016 C-257.0942286 276.16081601 -257.83285905 261.08060618 -257.76074219 245.92358398 C-257.74999058 243.24765462 -257.76073578 240.57239411 -257.7734375 237.89648438 C-257.78553752 223.53030309 -256.9238748 209.19330801 -253.8125 195.125 C-253.55932007 193.96883179 -253.55932007 193.96883179 -253.30102539 192.78930664 C-247.31521121 166.51082401 -237.40783313 141.40652589 -223.5 118.3125 C-222.91992188 117.32894531 -222.33984375 116.34539062 -221.7421875 115.33203125 C-214.31510959 103.18678549 -205.48223 91.96774166 -195.6796875 81.66796875 C-193.38855292 79.31648576 -193.38855292 79.31648576 -191.5 76.3125 C-190.84 76.3125 -190.18 76.3125 -189.5 76.3125 C-189.0978125 75.4153125 -189.0978125 75.4153125 -188.6875 74.5 C-187.50082594 72.31402146 -186.40400887 70.89917406 -184.5 69.3125 C-183.84 69.3125 -183.18 69.3125 -182.5 69.3125 C-182.5 68.6525 -182.5 67.9925 -182.5 67.3125 C-180.85546875 65.62109375 -180.85546875 65.62109375 -178.6875 63.75 C-177.97980469 63.12996094 -177.27210938 62.50992188 -176.54296875 61.87109375 C-174.5 60.3125 -174.5 60.3125 -171.5 59.3125 C-171.5 58.6525 -171.5 57.9925 -171.5 57.3125 C-170.18994141 56.0949707 -170.18994141 56.0949707 -168.3515625 54.73828125 C-167.68165283 54.23941406 -167.01174316 53.74054687 -166.3215332 53.2265625 C-165.59667725 52.69804688 -164.87182129 52.16953125 -164.125 51.625 C-163.01354614 50.80708984 -163.01354614 50.80708984 -161.87963867 49.97265625 C-160.40593341 48.89091956 -158.92998509 47.81223114 -157.45166016 46.73681641 C-155.94058708 45.63403928 -154.44219185 44.51387914 -152.94921875 43.38671875 C-120.3899896 19.3988406 -80.32463658 5.76641357 -40.4375 1.1875 C-39.7787085 1.11184814 -39.11991699 1.03619629 -38.44116211 0.95825195 C-36.12919623 0.7132406 -33.8168174 0.5069434 -31.5 0.3125 C-29.73003662 0.16373413 -29.73003662 0.16373413 -27.92431641 0.01196289 C-18.54992572 -0.7103516 -9.39275534 -0.64148773 0 0 Z M-164.5 144.3125 C-162.82962942 153.88092338 -160.05384435 163.07216237 -157.3125 172.375 C-156.3196033 175.76634055 -155.3296407 179.15853489 -154.33984375 182.55078125 C-154.09574768 183.38600311 -153.85165161 184.22122498 -153.60015869 185.08175659 C-151.16558603 193.4260399 -148.82355006 201.79493259 -146.51879883 210.17602539 C-146.26251709 211.10278076 -146.00623535 212.02953613 -145.7421875 212.984375 C-145.5241748 213.7794043 -145.30616211 214.57443359 -145.08154297 215.39355469 C-144.54136658 217.37025263 -144.54136658 217.37025263 -143.5 219.3125 C-137.89 219.3125 -132.28 219.3125 -126.5 219.3125 C-120.88279934 203.08130527 -116.85054608 186.450464 -115.5 169.3125 C-114.84 169.6425 -114.18 169.9725 -113.5 170.3125 C-113.11794981 172.44409747 -112.84837912 174.59598702 -112.625 176.75 C-110.67278066 199.45893985 -110.67278066 199.45893985 -102.5 219.3125 C-99.67413249 219.46572744 -96.88956118 219.54412755 -94.0625 219.5625 C-93.27294922 219.583125 -92.48339844 219.60375 -91.66992188 219.625 C-89.11061392 219.67723586 -89.11061392 219.67723586 -85.5 219.3125 C-83.12438033 215.7490705 -82.45203149 212.30009322 -81.5625 208.1875 C-80.36246237 202.84730467 -79.0527847 197.68649639 -77.2109375 192.52734375 C-75.97388851 188.67346037 -75.19282952 184.70944646 -74.3125 180.76171875 C-73.21683897 176.11042699 -71.88297709 171.54122803 -70.55078125 166.953125 C-69.42100243 163.0387984 -68.32077459 159.11831303 -67.25 155.1875 C-66.91484375 153.96804687 -66.5796875 152.74859375 -66.234375 151.4921875 C-65.3499771 148.20683124 -65.3499771 148.20683124 -65.5 144.3125 C-70.78 144.3125 -76.06 144.3125 -81.5 144.3125 C-84.47659909 157.60960248 -87.2418703 170.91181663 -89.60546875 184.33203125 C-90.49027715 189.34197331 -91.48158564 194.32818986 -92.5 199.3125 C-94.86222035 196.95027965 -94.90732975 195.99011481 -95.39453125 192.75390625 C-95.54293457 191.81957764 -95.69133789 190.88524902 -95.84423828 189.92260742 C-96.07602783 188.41404175 -96.07602783 188.41404175 -96.3125 186.875 C-97.83123754 177.53527576 -99.87669324 168.50780462 -102.3984375 159.39453125 C-103.33150347 156.01508779 -104.09682025 152.63375437 -104.75 149.1875 C-105.07964039 145.54624047 -105.07964039 145.54624047 -106.5 144.3125 C-109.19654854 144.23930379 -111.86691458 144.22007463 -114.5625 144.25 C-115.70041992 144.25676758 -115.70041992 144.25676758 -116.86132812 144.26367188 C-118.74091871 144.2754932 -120.62046899 144.29342922 -122.5 144.3125 C-126.89453488 162.89663969 -130.81213685 181.38984097 -133.5 200.3125 C-134.16 199.9825 -134.82 199.6525 -135.5 199.3125 C-136.01428171 197.01077577 -136.40587581 194.76672841 -136.75 192.4375 C-138.24092108 183.18319079 -140.27145151 174.07161009 -142.34277344 164.93212891 C-142.59188477 163.83175293 -142.84099609 162.73137695 -143.09765625 161.59765625 C-143.33758301 160.53949707 -143.57750977 159.48133789 -143.82470703 158.39111328 C-144.64463868 154.65310239 -145.37305184 150.90148806 -146.06811523 147.13842773 C-146.33312826 145.30425185 -146.33312826 145.30425185 -147.5 144.3125 C-150.36267567 144.23924832 -153.200719 144.22011795 -156.0625 144.25 C-156.86880859 144.25451172 -157.67511719 144.25902344 -158.50585938 144.26367188 C-160.50393756 144.27549482 -162.50197783 144.29343086 -164.5 144.3125 Z M-55.5 171.3125 C-62.27702003 179.72276309 -63.09272237 188.76027625 -62.04296875 199.2578125 C-61.28875481 203.50094414 -59.87106285 206.74315807 -57.5 210.3125 C-56.63375 211.67375 -56.63375 211.67375 -55.75 213.0625 C-49.88034538 218.93215462 -42.57064419 220.4333222 -34.5 220.625 C-26.80683361 220.58991144 -19.40055577 218.76277789 -12.5 215.3125 C-13.49 210.3625 -13.49 210.3625 -14.5 205.3125 C-18.14794849 204.09651717 -19.43363565 204.71485133 -23.0625 205.8125 C-29.92674162 207.64518587 -35.76426953 207.55774349 -42.5 205.3125 C-42.5 204.6525 -42.5 203.9925 -42.5 203.3125 C-43.16 203.3125 -43.82 203.3125 -44.5 203.3125 C-44.5 201.3325 -44.5 199.3525 -44.5 197.3125 C-33.61 196.9825 -22.72 196.6525 -11.5 196.3125 C-10.87462233 181.57239072 -10.87462233 181.57239072 -17.8515625 169.95703125 C-29.37959584 160.3503368 -44.62804542 160.44054542 -55.5 171.3125 Z M-4.5 259.3125 C-5.71480284 260.30661455 -5.71480284 260.30661455 -5.62025452 262.25502014 C-5.61803391 263.10551437 -5.61581329 263.95600861 -5.61352539 264.83227539 C-5.61344986 265.79319595 -5.61337433 266.75411652 -5.61329651 267.74415588 C-5.60813522 268.788936 -5.60297394 269.83371613 -5.59765625 270.91015625 C-5.59553383 272.50614906 -5.59553383 272.50614906 -5.59336853 274.13438416 C-5.58775064 277.54795083 -5.57519511 280.961453 -5.5625 284.375 C-5.55748731 286.68294176 -5.552924 288.99088455 -5.54882812 291.29882812 C-5.5377754 296.97007426 -5.52101987 302.64128253 -5.5 308.3125 C-6.1138858 307.89500992 -6.72777161 307.47751984 -7.36026001 307.04737854 C-8.16772675 306.50266403 -8.97519348 305.95794952 -9.80712891 305.39672852 C-10.60663971 304.85548843 -11.40615051 304.31424835 -12.22988892 303.75660706 C-19.46741882 299.15252928 -28.2112686 299.32833919 -36.5 300.3125 C-47.51838669 303.12356904 -55.23651205 309.4634663 -61.1875 318.98828125 C-69.77400355 334.19354796 -71.75774993 353.98496133 -67.5546875 370.9765625 C-66.41372334 374.27028924 -65.15598392 377.2493822 -63.5 380.3125 C-62.85417969 381.51326172 -62.85417969 381.51326172 -62.1953125 382.73828125 C-61.0453546 384.69178116 -59.85868075 386.49957375 -58.5 388.3125 C-57.90832031 389.13105469 -57.31664062 389.94960938 -56.70703125 390.79296875 C-52.25642906 395.8737447 -45.16200673 400.29427864 -38.375 401.25 C-37.09625 401.270625 -35.8175 401.29125 -34.5 401.3125 C-33.70980469 401.34859375 -32.91960937 401.3846875 -32.10546875 401.421875 C-22.4619227 401.7181437 -15.74786559 399.94831096 -7.76171875 394.45703125 C-5.5 393.3125 -5.5 393.3125 -3.33203125 393.515625 C-0.82867755 394.6045038 0.61063226 396.36408952 2.5 398.3125 C7.39971537 401.39108223 12.92021776 400.80357777 18.5 400.3125 C21.38127714 399.552651 23.78134195 398.56726526 26.5 397.3125 C26.5 392.0325 26.5 386.7525 26.5 381.3125 C24.19 380.9825 21.88 380.6525 19.5 380.3125 C19.17 340.3825 18.84 300.4525 18.5 259.3125 C10.91 259.3125 3.32 259.3125 -4.5 259.3125 Z M-136.125 309.140625 C-137.5 310.3125 -137.5 310.3125 -139.5 310.3125 C-139.78875 309.178125 -140.0775 308.04375 -140.375 306.875 C-140.74625 305.699375 -141.1175 304.52375 -141.5 303.3125 C-143.90059817 302.11220092 -145.39360649 302.19790257 -148.0703125 302.21484375 C-149.41416016 302.21967773 -149.41416016 302.21967773 -150.78515625 302.22460938 C-152.19087891 302.23717773 -152.19087891 302.23717773 -153.625 302.25 C-155.04232422 302.25676758 -155.04232422 302.25676758 -156.48828125 302.26367188 C-158.82558387 302.27547643 -161.16276061 302.29194241 -163.5 302.3125 C-164.53934415 305.43053246 -164.59410081 307.48014744 -164.53759766 310.74487305 C-164.52069382 311.86360809 -164.50378998 312.98234314 -164.4863739 314.13497925 C-164.46251114 315.35242828 -164.43864838 316.56987732 -164.4140625 317.82421875 C-164.39314041 319.08920197 -164.37221832 320.35418518 -164.35066223 321.65750122 C-164.29280968 325.06880656 -164.23012125 328.47995122 -164.16480637 331.8911171 C-164.11192556 334.69266471 -164.06290948 337.49427494 -164.01374722 340.29588985 C-163.67273911 359.63969884 -163.24532932 378.97947221 -162.5 398.3125 C-160.06283785 399.53108107 -158.46725943 399.44175575 -155.74609375 399.4453125 C-154.80958984 399.44660156 -153.87308594 399.44789063 -152.90820312 399.44921875 C-151.92787109 399.44535156 -150.94753906 399.44148438 -149.9375 399.4375 C-148.95330078 399.44136719 -147.96910156 399.44523437 -146.95507812 399.44921875 C-145.55225586 399.44728516 -145.55225586 399.44728516 -144.12109375 399.4453125 C-143.2592749 399.44418457 -142.39745605 399.44305664 -141.50952148 399.44189453 C-139.50209968 399.53466915 -139.50209968 399.53466915 -138.5 398.3125 C-138.39202529 396.31969466 -138.35371267 394.32308821 -138.34228516 392.32739258 C-138.33202301 391.04548538 -138.32176086 389.76357819 -138.31118774 388.44282532 C-138.30774982 387.75299372 -138.3043119 387.06316212 -138.30076981 386.35242653 C-138.2890006 384.19568753 -138.26955045 382.03915059 -138.24765015 379.88249207 C-138.18598699 373.74879736 -138.13208702 367.61511954 -138.09863281 361.48120117 C-138.07763289 357.73216279 -138.04228002 353.98348635 -137.99787521 350.23465538 C-137.9837485 348.80783044 -137.9750003 347.38094139 -137.97182083 345.95405006 C-137.96688734 343.95081461 -137.94207588 341.94765838 -137.91650391 339.94458008 C-137.90841705 338.80620193 -137.9003302 337.66782379 -137.89199829 336.49494934 C-137.3770088 332.31399242 -136.06010617 328.78222218 -132.94921875 325.8515625 C-126.52841327 322.5201468 -119.59213362 322.37196615 -112.5 323.3125 C-109.69921875 324.83984375 -109.69921875 324.83984375 -107.5 326.3125 C-106.84 326.3125 -106.18 326.3125 -105.5 326.3125 C-103.43223536 334.49035702 -103.17543761 342.41099482 -103.12109375 350.81640625 C-103.10488423 352.18978518 -103.08770073 353.56315293 -103.06959534 354.93650818 C-103.02431037 358.51818692 -102.98928043 362.09988123 -102.95739746 365.68170166 C-102.90511169 371.44516523 -102.84049044 377.20846686 -102.76918221 382.97172356 C-102.74634215 384.982043 -102.73036446 386.99243658 -102.71446228 389.00282288 C-102.70097244 390.21175705 -102.6874826 391.42069122 -102.67358398 392.66625977 C-102.65931618 394.26982079 -102.65931618 394.26982079 -102.64476013 395.90577698 C-102.76999614 398.26362942 -102.76999614 398.26362942 -101.5 399.3125 C-99.87742456 399.4116657 -98.25060169 399.44329777 -96.625 399.4453125 C-95.64015625 399.44660156 -94.6553125 399.44789063 -93.640625 399.44921875 C-92.08601563 399.44341797 -92.08601563 399.44341797 -90.5 399.4375 C-89.46359375 399.44136719 -88.4271875 399.44523437 -87.359375 399.44921875 C-86.37453125 399.44792969 -85.3896875 399.44664062 -84.375 399.4453125 C-83.00988281 399.44362061 -83.00988281 399.44362061 -81.6171875 399.44189453 C-79.5147152 399.54810009 -79.5147152 399.54810009 -78.5 398.3125 C-78.38459605 396.16790093 -78.34028635 394.01945844 -78.32299805 391.87182617 C-78.31642685 391.19845215 -78.30985565 390.52507812 -78.30308533 389.83129883 C-78.28328582 387.58935438 -78.27166652 385.34747758 -78.26171875 383.10546875 C-78.25764322 382.3380517 -78.2535677 381.57063465 -78.24936867 380.77996254 C-78.22846583 376.7072336 -78.21419032 372.63453863 -78.20483398 368.56176758 C-78.19384438 364.38027248 -78.15954477 360.19932064 -78.11966228 356.01801586 C-78.0933174 352.78433852 -78.08512578 349.55078606 -78.08155251 346.31701088 C-78.07672147 344.77783917 -78.0652086 343.2386717 -78.04651451 341.69960594 C-77.90837275 329.55798304 -78.74380459 318.14004806 -87.640625 308.99609375 C-96.4652634 301.00571738 -104.4528725 299.74236793 -116.06640625 300 C-124.34019838 300.41778037 -130.23210359 303.41771598 -136.125 309.140625 Z M77.5 315.3125 C73.23430061 322.74168786 73.73059521 332.77301173 75.125 341 C79.2196982 350.8645002 85.79110434 355.16820065 95.5 359.3125 C99.06085243 360.47015911 102.62475702 361.46771079 106.25 362.40234375 C109.9833469 363.44786037 113.35247064 364.87949693 116.828125 366.578125 C118.50084676 367.44655501 118.50084676 367.44655501 120.5 367.3125 C120.98598131 374.60221963 120.98598131 374.60221963 118.875 377.6875 C112.39991846 382.11781895 105.27718051 382.18479544 97.76171875 380.8125 C91.20763149 379.18093089 85.4074873 376.55457003 79.5 373.3125 C74.92112832 377.23724715 72.14152929 382.17613456 70.9375 388.0625 C71.77044913 391.39429652 73.75479442 392.33473019 76.5 394.3125 C90.54034631 401.78691966 107.99025809 403.52738707 123.43359375 399.55859375 C125.6424872 398.64364482 127.51256906 397.63745396 129.5 396.3125 C130.24894531 395.82007813 130.99789062 395.32765625 131.76953125 394.8203125 C136.1511367 391.87496504 136.1511367 391.87496504 138.5 387.3125 C139.16 387.3125 139.82 387.3125 140.5 387.3125 C144.99222024 378.40827774 147.63479698 369.87219284 144.8359375 359.9609375 C140.62811003 350.48417823 132.82575935 345.77656814 123.49365234 342.05517578 C118.95032013 340.36269273 114.32384009 338.88433406 109.68041992 337.49194336 C105.24993945 336.11521276 101.80686552 334.737234 98.5 331.3125 C98.4375 327.75 98.4375 327.75 99.5 324.3125 C103.16588578 320.64661422 107.0397612 320.12442247 112.0625 320 C118.33045516 320.03789574 122.89035553 321.70660133 128.5 324.3125 C130.49302124 324.9997487 132.48967123 325.67765933 134.5 326.3125 C140.55136627 318.61883936 140.55136627 318.61883936 142.5 309.3125 C122.21171862 295.12814281 94.14129379 295.7546908 77.5 315.3125 Z M38.5 303.3125 C38.39940231 306.25959415 38.3638495 309.18329141 38.37060547 312.13085938 C38.36885315 313.05598831 38.36710083 313.98111725 38.36529541 314.9342804 C38.36087533 318.00828905 38.36381543 321.0822407 38.3671875 324.15625 C38.36651451 326.28234875 38.36554452 328.40844742 38.36428833 330.5345459 C38.36281114 334.9968336 38.36496658 339.45910133 38.36962891 343.92138672 C38.3753262 349.65520569 38.37204731 355.38897785 38.36605644 361.1227951 C38.36245139 365.51495723 38.36358916 369.90710817 38.36618423 374.29927063 C38.36685366 376.41408799 38.36602455 378.52890634 38.36370468 380.64372253 C38.36117907 383.59388946 38.36501746 386.54397946 38.37060547 389.49414062 C38.36858124 390.37729446 38.36655701 391.2604483 38.36447144 392.17036438 C37.9933757 396.05334913 37.9933757 396.05334913 39.5 399.3125 C41.04955559 399.41149523 42.60353673 399.44329524 44.15625 399.4453125 C45.09597656 399.44660156 46.03570312 399.44789063 47.00390625 399.44921875 C48.48697266 399.44341797 48.48697266 399.44341797 50 399.4375 C51.48306641 399.44330078 51.48306641 399.44330078 52.99609375 399.44921875 C54.40568359 399.44728516 54.40568359 399.44728516 55.84375 399.4453125 C57.14602539 399.44362061 57.14602539 399.44362061 58.47460938 399.44189453 C60.49604154 399.5366537 60.49604154 399.5366537 61.5 398.3125 C62.86956132 387.3713609 62.64755241 376.26646622 62.6328125 365.26171875 C62.63348765 363.46808357 62.63445944 361.67444847 62.63571167 359.8808136 C62.63717375 356.15531528 62.63507921 352.42984118 62.63037109 348.7043457 C62.6246204 343.92038689 62.62799552 339.13648354 62.63394356 334.35252666 C62.63754376 330.66467362 62.63641403 326.97683392 62.63381577 323.28898048 C62.63314777 321.52304897 62.63397049 319.75711625 62.63629532 317.99118614 C62.63881872 315.54055896 62.63498823 313.09002451 62.62939453 310.6394043 C62.63141876 309.90758438 62.63344299 309.17576447 62.63552856 308.42176819 C62.91412185 305.08280012 62.91412185 305.08280012 61.5 302.3125 C59.87742456 302.2133343 58.25060169 302.18170223 56.625 302.1796875 C55.64015625 302.17839844 54.6553125 302.17710937 53.640625 302.17578125 C52.08601563 302.18158203 52.08601563 302.18158203 50.5 302.1875 C49.46359375 302.18363281 48.4271875 302.17976563 47.359375 302.17578125 C46.37453125 302.17707031 45.3896875 302.17835938 44.375 302.1796875 C43.46492188 302.18081543 42.55484375 302.18194336 41.6171875 302.18310547 C39.5147152 302.07689991 39.5147152 302.07689991 38.5 303.3125 Z " fill="#6B2B78" transform="translate(264.5,5.6875)"/>
<path d="M0 0 C2.57703102 2.03873671 4.35279052 4.30361384 6.375 6.87890625 C8.50446603 7.74856131 8.50446603 7.74856131 10.375 7.87890625 C10.61992187 7.29109375 10.86484375 6.70328125 11.1171875 6.09765625 C15.37020041 -1.40455285 25.16328794 -5.66877925 33 -8.37109375 C43.46183586 -10.62315235 54.75090228 -9.89160828 64.375 -5.12109375 C76.81526641 3.65848377 85.71666847 16.77099725 88.375 31.87890625 C90.27003712 48.6899736 85.36898717 62.12711549 77.375 76.87890625 C76.715 76.87890625 76.055 76.87890625 75.375 76.87890625 C75.17777344 77.5440625 74.98054687 78.20921875 74.77734375 78.89453125 C72.81611427 83.0682898 69.97136628 86.18720877 66.9375 89.62890625 C66.05868164 90.65564453 66.05868164 90.65564453 65.16210938 91.703125 C60.75906308 96.75088522 60.75906308 96.75088522 57.375 97.87890625 C56.68093325 99.19818392 56.01686526 100.53345792 55.375 101.87890625 C50.38880196 107.14658321 44.19510489 111.43760224 38.47558594 115.88305664 C35.67626687 118.05903438 32.91554803 120.25630362 30.21875 122.55859375 C27.84387344 124.49633644 25.70107376 125.97314296 23 127.37890625 C19.26252966 129.3608981 15.77084015 131.5484617 12.296875 133.9609375 C9.75629898 135.17442401 8.16855714 135.22915586 5.375 134.87890625 C2.8671875 133.62890625 2.8671875 133.62890625 0.25 131.87890625 C-0.70519531 131.24339844 -1.66039062 130.60789063 -2.64453125 129.953125 C-6.53504329 127.24557337 -10.37492643 124.47626173 -14.1875 121.66015625 C-16.06782355 120.28607366 -17.99412533 118.97476688 -19.9375 117.69140625 C-22.4050596 116.02723815 -24.66008066 114.23305872 -26.91796875 112.296875 C-28.97730797 110.58625684 -31.11299396 108.99127905 -33.25 107.37890625 C-36.57585898 104.80942991 -39.12102348 102.2771601 -41.625 98.87890625 C-43.28169116 97.20232343 -44.94994323 95.53714036 -46.625 93.87890625 C-60.46487923 79.81146548 -72.68767227 62.18811945 -72.8125 41.69140625 C-72.63974167 28.84970352 -68.72713204 18.53210431 -61.625 7.87890625 C-60.965 7.87890625 -60.305 7.87890625 -59.625 7.87890625 C-59.38394531 7.13769531 -59.14289063 6.39648438 -58.89453125 5.6328125 C-56.17112536 -0.27488336 -50.33869363 -3.87688428 -44.56640625 -6.5234375 C-28.26857771 -12.12893299 -14.19304243 -9.10297811 0 0 Z " fill="#8CC53E" transform="translate(322.625,91.12109375)"/>
<path d="M0 0 C3.22902895 1.72042662 4.35533616 2.56425424 6.4375 5.6875 C6.69819641 7.60237122 6.69819641 7.60237122 6.7121582 9.78833008 C6.72645622 11.02024834 6.72645622 11.02024834 6.74104309 12.27705383 C6.74013168 13.16144638 6.73922028 14.04583893 6.73828125 14.95703125 C6.74256638 15.87079025 6.7468515 16.78454926 6.75126648 17.72599792 C6.75701054 19.66017834 6.75750948 21.59438037 6.75317383 23.52856445 C6.75002306 26.4784062 6.7734399 29.42723607 6.79882812 32.37695312 C6.80110212 34.25781124 6.80180415 36.13867204 6.80078125 38.01953125 C6.809991 38.8978511 6.81920074 39.77617096 6.82868958 40.68110657 C6.79057377 45.76462157 6.26471151 49.28370739 3.4375 53.6875 C-1.36328421 57.35926543 -7.21698676 58.34625838 -13.140625 58.0703125 C-18.62435288 57.20352971 -22.80034922 54.86545162 -26.4375 50.6875 C-33.59979246 40.57602829 -32.66352989 26.56357672 -30.8125 14.6875 C-29.4934008 8.52254332 -27.6174633 4.28114501 -22.5 0.3125 C-15.20913322 -3.72074545 -7.45742812 -3.60948192 0 0 Z " fill="#6D2E78" transform="translate(252.5625,329.3125)"/>
<path d="M0 0 C5.17120321 1.95356566 9.53525155 7.07050311 12 12 C12.61769617 17.97106294 11.8548466 21.29672039 8.4375 26.23828125 C6.03193431 29.1864066 3.39096344 31.30451828 0 33 C-1.78859511 33.12207871 -3.58228381 33.17548448 -5.375 33.1875 C-6.33148438 33.20167969 -7.28796875 33.21585937 -8.2734375 33.23046875 C-11.03010017 32.99745572 -12.64947395 32.40920164 -15 31 C-15 30.34 -15 29.68 -15 29 C-15.598125 28.773125 -16.19625 28.54625 -16.8125 28.3125 C-19.80043735 26.51973759 -20.64997474 25.24006063 -22 22 C-22.7349487 16.05088825 -22.51440241 11.03731012 -19 6 C-12.90829172 0.02200361 -8.32990013 -0.64169289 0 0 Z " fill="#8BC53E" transform="translate(320,264)"/>
<path d="M0 0 C0.66 0 1.32 0 2 0 C2.22226864 1.76913824 2.42733873 3.54044371 2.625 5.3125 C2.74101562 6.29863281 2.85703125 7.28476563 2.9765625 8.30078125 C3 11 3 11 1 14 C1 14.66 1 15.32 1 16 C0.34 16 -0.32 16 -1 16 C-1 15.34 -1 14.68 -1 14 C-1.99 14.66 -2.98 15.32 -4 16 C-5.32 16 -6.64 16 -8 16 C-6.35 16.33 -4.7 16.66 -3 17 C-3.33 17.66 -3.66 18.32 -4 19 C-11.77135419 21.45354298 -19.97565764 23.09673386 -28 21 C-28.99 20.34 -29.98 19.68 -31 19 C-31 18.34 -31 17.68 -31 17 C-31.66 17 -32.32 17 -33 17 C-33.38133299 15.0085944 -33.71325582 13.00720923 -34 11 C-33 10 -33 10 -29.85717773 9.88647461 C-28.46597303 9.88663367 -27.07476239 9.89232494 -25.68359375 9.90234375 C-24.95253922 9.9037587 -24.22148468 9.90517365 -23.46827698 9.90663147 C-21.12464368 9.91224592 -18.78110461 9.92480078 -16.4375 9.9375 C-14.85221492 9.94251314 -13.26692834 9.94707637 -11.68164062 9.95117188 C-7.7877239 9.96222003 -3.89387795 9.97949428 0 10 C0 6.7 0 3.4 0 0 Z " fill="#7D4782" transform="translate(253,192)"/>
<path d="M0 0 C2.12890625 0.41015625 2.12890625 0.41015625 4.69140625 1.91015625 C6.80740955 5.59016199 6.47413435 8.19837347 6.12890625 12.41015625 C4.38266745 14.15639505 2.13012301 13.54236776 -0.19335938 13.546875 C-0.89138672 13.54300781 -1.58941406 13.53914062 -2.30859375 13.53515625 C-3.34983398 13.54095703 -3.34983398 13.54095703 -4.41210938 13.546875 C-9.61781387 13.53679619 -9.61781387 13.53679619 -11.87109375 12.41015625 C-11.57729851 8.66426697 -11.08770087 5.83434519 -9.37109375 2.47265625 C-6.15487124 -0.18072732 -4.07925842 -0.26209403 0 0 Z " fill="#87548B" transform="translate(230.87109375,180.58984375)"/>
<path d="M0 0 C2.109375 0.41015625 2.109375 0.41015625 4 1 C3.49210937 1.38929688 2.98421875 1.77859375 2.4609375 2.1796875 C-6.9753915 9.84891369 -12.98613947 20.99116615 -15 33 C-15.31036808 37.60682181 -15.32470502 42.19656033 -15.3125 46.8125 C-15.32861328 48.01970703 -15.34472656 49.22691406 -15.36132812 50.47070312 C-15.36546182 58.11390299 -14.45144572 64.75325562 -12 72 C-12.99 71.67 -13.98 71.34 -15 71 C-18.96914233 62.71095393 -18.30882312 54.08782837 -18.125 45.125 C-18.0898438 42.86248204 -18.05910349 40.60001979 -18.03366089 38.33737183 C-18.00908152 36.30047599 -17.97192387 34.26374339 -17.93408203 32.22705078 C-17.84064758 28.98341161 -17.84064758 28.98341161 -19 26 C-18.3125 23.9375 -18.3125 23.9375 -17 22 C-16.00613281 21.58427734 -16.00613281 21.58427734 -14.9921875 21.16015625 C-12.81363298 20.17154096 -12.81363298 20.17154096 -12.20703125 17.90625 C-12.07683594 17.1121875 -11.94664062 16.318125 -11.8125 15.5 C-10.82711198 9.82711198 -10.82711198 9.82711198 -9 8 C-9 7.34 -9 6.68 -9 6 C-8.34 5.67 -7.68 5.34 -7 5 C-6.67 4.01 -6.34 3.02 -6 2 C-5.01 2.33 -4.02 2.66 -3 3 C-2.5875 2.484375 -2.175 1.96875 -1.75 1.4375 C-1.1725 0.963125 -0.595 0.48875 0 0 Z " fill="#855187" transform="translate(212,311)"/>
<path d="M0 0 C2.86703917 2.86703917 2.29036291 4.90000865 2.35058594 8.91796875 C2.36384415 9.6306189 2.37710236 10.34326904 2.39076233 11.07751465 C2.43201556 13.44746933 2.4586668 15.81732917 2.484375 18.1875 C2.50818988 19.8454668 2.53255139 21.50342583 2.55743408 23.16137695 C2.6074685 26.65180537 2.65019312 30.14223079 2.68798828 33.6328125 C2.73652027 38.0547497 2.80366565 42.47615944 2.87673569 46.89775085 C2.93117036 50.33316314 2.97477387 53.7686539 3.01544952 57.20425415 C3.03603071 58.83058248 3.05988836 60.45687342 3.08739471 62.08309937 C3.27351832 73.54174247 2.50343452 84.63865836 1 96 C0.67 96 0.34 96 0 96 C0 64.32 0 32.64 0 0 Z " fill="#65296A" transform="translate(328,308)"/>
<path d="M0 0 C5.17120321 1.95356566 9.53525155 7.07050311 12 12 C12.71354358 18.8975879 11.10056864 22.49352212 7 28 C7 25 7 25 8 22.8125 C9.85191723 17.6039828 9.73395756 13.62082294 7.5 8.6875 C3.34233124 4.21800609 -0.90669774 3.20257764 -6.875 2.625 C-7.90625 2.74875 -8.9375 2.8725 -10 3 C-10.99 4.485 -10.99 4.485 -12 6 C-15.125 6.6875 -15.125 6.6875 -18 7 C-19.98968333 12.50088921 -20.67157328 17.28879129 -19 23 C-16.38384613 26.32322249 -13.88625572 28.3972741 -10 30 C-4.99750324 30.47991432 0.13112211 30.29836744 5 29 C2.56487334 31.54581423 1.16768273 32.92030102 -2.4609375 33.16796875 C-3.42257812 33.17441406 -4.38421875 33.18085938 -5.375 33.1875 C-6.33148438 33.20167969 -7.28796875 33.21585937 -8.2734375 33.23046875 C-11.03010017 32.99745572 -12.64947395 32.40920164 -15 31 C-15 30.34 -15 29.68 -15 29 C-15.598125 28.773125 -16.19625 28.54625 -16.8125 28.3125 C-19.80043735 26.51973759 -20.64997474 25.24006063 -22 22 C-22.7349487 16.05088825 -22.51440241 11.03731012 -19 6 C-12.90829172 0.02200361 -8.32990013 -0.64169289 0 0 Z " fill="#94A95D" transform="translate(320,264)"/>
<path d="M0 0 C0.763125 0.103125 1.52625 0.20625 2.3125 0.3125 C2.79015748 9.65335742 2.61207904 21.71334193 -1.6875 30.3125 C-2.6775 29.9825 -3.6675 29.6525 -4.6875 29.3125 C-6.35338945 24.92899277 -5.91095862 19.99651828 -5.9375 15.375 C-5.9684375 14.03405273 -5.9684375 14.03405273 -6 12.66601562 C-6.07103241 0.705934 -6.07103241 0.705934 0 0 Z " fill="#662B6F" transform="translate(132.6875,175.6875)"/>
<path d="M0 0 C0.66 0 1.32 0 2 0 C1.98525131 0.57105469 1.97050262 1.14210937 1.95530701 1.73046875 C1.80229621 7.70052202 1.65767759 13.67073765 1.51782227 19.64111328 C1.46461535 21.86610017 1.40930428 24.09103782 1.35180664 26.31591797 C1.26929772 29.523004 1.19448079 32.73019381 1.12109375 35.9375 C1.09405869 36.92427734 1.06702362 37.91105469 1.03916931 38.92773438 C0.92183148 44.41835698 1.2194873 49.5660884 2 55 C2.06809887 56.42582924 2.10955129 57.85384502 2.09765625 59.28125 C2.09282227 60.32539063 2.09282227 60.32539063 2.08789062 61.390625 C2.07951172 62.08671875 2.07113281 62.7828125 2.0625 63.5 C2.05573242 64.59054687 2.05573242 64.59054687 2.04882812 65.703125 C2.03721193 67.46878681 2.01928441 69.2344053 2 71 C-0.41924494 67.16360554 -0.67615812 63.02143476 -1.109375 58.61328125 C-1.19346619 57.78049149 -1.27755737 56.94770172 -1.36419678 56.0896759 C-2.20022607 47.04896839 -2.30276048 38.02543229 -2.26074219 28.9519043 C-2.24983158 26.14415779 -2.26081522 23.33702653 -2.2734375 20.52929688 C-2.27211867 18.72135277 -2.26956204 16.91340905 -2.265625 15.10546875 C-2.26967346 14.27734177 -2.27372192 13.44921478 -2.27789307 12.59599304 C-2.24074574 8.00530132 -1.74844559 4.32206374 0 0 Z " fill="#7A457B" transform="translate(9,222)"/>
<path d="M0 0 C0.33 0 0.66 0 1 0 C0.28084544 6.63521846 -0.49659222 13.25890738 -1.375 19.875 C-1.4884375 20.81085938 -1.601875 21.74671875 -1.71875 22.7109375 C-1.83992187 23.608125 -1.96109375 24.5053125 -2.0859375 25.4296875 C-2.1895459 26.23647949 -2.2931543 27.04327148 -2.39990234 27.87451172 C-3.09658999 30.34211247 -4.06128327 31.36832876 -6 33 C-8.9795599 28.53066014 -9.30368255 23.73909116 -10.1875 18.5 C-10.47270508 16.91251953 -10.47270508 16.91251953 -10.76367188 15.29296875 C-10.93833984 14.27847656 -11.11300781 13.26398438 -11.29296875 12.21875 C-11.4530542 11.28998047 -11.61313965 10.36121094 -11.77807617 9.40429688 C-12 7 -12 7 -11 4 C-10.5359375 5.175625 -10.5359375 5.175625 -10.0625 6.375 C-9.07124962 8.92330128 -9.07124962 8.92330128 -8 11 C-8 12.32 -8 13.64 -8 15 C-7.67 13.68 -7.34 12.36 -7 11 C-6.01 11 -5.02 11 -4 11 C-3.87625 10.401875 -3.7525 9.80375 -3.625 9.1875 C-3 7 -3 7 -1 4 C-0.36707617 1.88719655 -0.36707617 1.88719655 0 0 Z " fill="#814984" transform="translate(177,173)"/>
<path d="M0 0 C3.99163736 5.98745604 2.92155297 16.15430692 1.59716797 23.11816406 C-0.64867943 31.89836825 -4.70060823 40.06607086 -9 48 C-9.66 48 -10.32 48 -11 48 C-11.21398437 48.68449219 -11.42796875 49.36898437 -11.6484375 50.07421875 C-13.40893425 53.88523628 -15.87030973 56.67676755 -18.625 59.8125 C-19.140625 60.40998047 -19.65625 61.00746094 -20.1875 61.62304688 C-21.45246272 63.08712409 -22.72543834 64.54427155 -24 66 C-25 63 -25 63 -24 60 C-22.515 59.505 -22.515 59.505 -21 59 C-18.2820478 56.73503983 -16.76554737 54.03674148 -15 51 C-13.7295036 48.95950578 -12.40568804 46.94982535 -11 45 C-10.34 45 -9.68 45 -9 45 C-8.87625 44.01 -8.87625 44.01 -8.75 43 C-8.08858908 40.35435631 -7.36982923 38.76542081 -6.0625 36.4375 C-3.32929328 31.25931563 -2.72809816 25.74814336 -2 20 C-1.34 20 -0.68 20 0 20 C0 13.4 0 6.8 0 0 Z " fill="#93AB5E" transform="translate(409,120)"/>
<path d="M0 0 C0.33 0 0.66 0 1 0 C1.81954818 14.58091853 2.27285822 29.14969009 2.5625 43.75 C2.60585521 45.82682846 2.64947376 47.90365143 2.69335938 49.98046875 C2.79859331 54.98692152 2.90031741 59.99343375 3 65 C3.33 65 3.66 65 4 65 C4.1875 67.375 4.1875 67.375 4 70 C0.63348195 72.24434537 -0.21596988 72.20138902 -4.10546875 71.9765625 C-5.57983398 71.89921875 -5.57983398 71.89921875 -7.08398438 71.8203125 C-8.10814453 71.75585938 -9.13230469 71.69140625 -10.1875 71.625 C-11.22326172 71.56828125 -12.25902344 71.5115625 -13.32617188 71.453125 C-15.88481271 71.31163334 -18.44247484 71.16022134 -21 71 C-21 70.67 -21 70.34 -21 70 C-11.1 69.505 -11.1 69.505 -1 69 C-0.26570056 59.83777235 0.13959666 50.79039977 0.09765625 41.6015625 C0.0962413 40.40058929 0.09482635 39.19961609 0.09336853 37.96224976 C0.08783852 34.18313951 0.07529984 30.40409187 0.0625 26.625 C0.05747593 24.03906336 0.05291463 21.45312579 0.04882812 18.8671875 C0.03789216 12.57810419 0.02122567 6.28905657 0 0 Z " fill="#C7B3C2" transform="translate(326,335)"/>
<path d="M0 0 C0.99 0.33 1.98 0.66 3 1 C3.09796875 1.87398437 3.1959375 2.74796875 3.296875 3.6484375 C4.28898023 11.80764777 5.70656682 19.74167011 7.59082031 27.74365234 C8.62431708 32.15343768 9.42642481 36.50600882 10 41 C9.01 40.34 8.02 39.68 7 39 C6.8125 36.375 6.8125 36.375 7 34 C6.01 34 5.02 34 4 34 C4.33 31.69 4.66 29.38 5 27 C4.34 27 3.68 27 3 27 C1.2958322 21.84053135 0.77774395 17.5574667 0.875 12.0625 C0.88402344 11.37865234 0.89304688 10.69480469 0.90234375 9.99023438 C0.92561042 8.32666713 0.96146833 6.66328369 1 5 C0.34 8.96 -0.32 12.92 -1 17 C-1.33 17 -1.66 17 -2 17 C-2.22084624 10.90218999 -2.01167675 5.78357065 0 0 Z " fill="#76417A" transform="translate(149,175)"/>
<path d="M0 0 C0.66 0.33 1.32 0.66 2 1 C1.38125 1.2475 0.7625 1.495 0.125 1.75 C-2.12053718 2.80915894 -2.12053718 2.80915894 -2.9296875 4.88671875 C-6.33583699 11.61199932 -15.01477201 16.43035527 -20.89941406 21.00415039 C-23.6936453 23.17617323 -26.44934321 25.36914776 -29.140625 27.66796875 C-31.58598261 29.66233828 -33.85205803 31.21284358 -36.625 32.6875 C-37.35976563 33.08324219 -38.09453125 33.47898438 -38.8515625 33.88671875 C-40.89181161 34.94393874 -42.94100674 35.97982008 -45 37 C-43.75010714 33.25032142 -42.16724569 32.28336317 -39 30 C-37.66666667 29.33333333 -36.33333333 28.66666667 -35 28 C-34.67 27.34 -34.34 26.68 -34 26 C-32.68 26 -31.36 26 -30 26 C-30 25.01 -30 24.02 -30 23 C-29.195625 22.649375 -28.39125 22.29875 -27.5625 21.9375 C-23.6041973 19.99141323 -20.34660363 17.21328155 -16.953125 14.42578125 C-15 13 -15 13 -13 13 C-13 12.34 -13 11.68 -13 11 C-12.34 10.67 -11.68 10.34 -11 10 C-9.86649466 7.98330173 -9.86649466 7.98330173 -9 6 C-8.01 6 -7.02 6 -6 6 C-6 5.01 -6 4.02 -6 3 C-4.03533587 1.93224776 -2.03144641 0.93446535 0 0 Z " fill="#93AC5B" transform="translate(382,186)"/>
<path d="M0 0 C3.63 0.99 7.26 1.98 11 3 C9.948125 3.8353125 9.948125 3.8353125 8.875 4.6875 C7.36989444 5.89812838 5.86965883 7.11795876 4.4375 8.4140625 C3.02041229 9.682356 1.5134783 10.84844043 0 12 C-0.99 11.67 -1.98 11.34 -3 11 C-3.33 8.69 -3.66 6.38 -4 4 C-10.27 3.67 -16.54 3.34 -23 3 C-23 2.67 -23 2.34 -23 2 C-19.89585298 1.97096423 -16.79174091 1.9531893 -13.6875 1.9375 C-12.36588867 1.92493164 -12.36588867 1.92493164 -11.01757812 1.91210938 C-10.17001953 1.90888672 -9.32246094 1.90566406 -8.44921875 1.90234375 C-7.27879028 1.89448853 -7.27879028 1.89448853 -6.0847168 1.88647461 C-4 2 -4 2 -1 3 C-0.67 2.01 -0.34 1.02 0 0 Z " fill="#8B5690" transform="translate(127,305)"/>
<path d="M0 0 C0.7425 -0.02384766 1.485 -0.04769531 2.25 -0.07226562 C6.29606516 -0.06154284 8.85696293 0.34034443 12.04296875 2.93359375 C14.46132118 5.3958497 16.21705945 7.41533878 17.625 10.5625 C17.295 11.5525 16.965 12.5425 16.625 13.5625 C15.75875 12.20125 15.75875 12.20125 14.875 10.8125 C12.15334119 6.88121506 10.21652852 4.09300951 5.625 2.5625 C0.33012196 2.05545516 -4.03000981 1.91402259 -8.875 4.25 C-11.36427841 6.55258253 -12.86499521 8.54249041 -14.375 11.5625 C-14.705 12.2225 -15.035 12.8825 -15.375 13.5625 C-16.14468122 20.46439551 -15.33539495 24.86943227 -11.375 30.5625 C-13.25 30.25 -13.25 30.25 -15.375 29.5625 C-17.91061496 25.75907756 -17.77895973 22.59990897 -17.8125 18.1875 C-17.84537109 17.43210937 -17.87824219 16.67671875 -17.91210938 15.8984375 C-17.95203148 11.7465383 -17.80777886 10.0925242 -15.09765625 6.7734375 C-14.19917969 6.04382813 -13.30070312 5.31421875 -12.375 4.5625 C-11.78460938 3.81097656 -11.19421875 3.05945313 -10.5859375 2.28515625 C-7.29065581 -0.28236888 -4.00240392 -0.05845435 0 0 Z " fill="#614257" transform="translate(314.375,262.4375)"/>
<path d="M0 0 C1.63001953 0.01353516 1.63001953 0.01353516 3.29296875 0.02734375 C4.12441406 0.03894531 4.95585937 0.05054688 5.8125 0.0625 C5.8125 0.3925 5.8125 0.7225 5.8125 1.0625 C1.1925 1.3925 -3.4275 1.7225 -8.1875 2.0625 C-7.8575 3.0525 -7.5275 4.0425 -7.1875 5.0625 C-8.5075 5.3925 -9.8275 5.7225 -11.1875 6.0625 C-11.1875 7.0525 -11.1875 8.0425 -11.1875 9.0625 C-10.5275 9.0625 -9.8675 9.0625 -9.1875 9.0625 C-9.1875 9.7225 -9.1875 10.3825 -9.1875 11.0625 C-8.5275 11.0625 -7.8675 11.0625 -7.1875 11.0625 C-7.1875 11.7225 -7.1875 12.3825 -7.1875 13.0625 C-6.5275 13.0625 -5.8675 13.0625 -5.1875 13.0625 C-4.8575 14.7125 -4.5275 16.3625 -4.1875 18.0625 C-8.63809059 16.82047472 -12.06918951 15.55878752 -15.1875 12.0625 C-15.3125 8.5625 -15.3125 8.5625 -14.1875 5.0625 C-9.72708458 0.60208458 -6.1359586 -0.06597805 0 0 Z " fill="#8B6991" transform="translate(377.1875,324.9375)"/>
<path d="M0 0 C1.22768741 3.68306224 0.27265366 4.60226257 -1.27490234 7.96191406 C-2.60245915 11.69337675 -2.39072071 15.45770664 -2.3125 19.375 C-2.31733398 20.57382813 -2.31733398 20.57382813 -2.32226562 21.796875 C-2.26016984 28.7741837 -1.28745897 35.37049098 1.625 41.75 C2.93860713 44.85488959 3.30089366 46.69016969 3 50 C0.949137 46.92370549 -0.24138277 44.07173569 -1.5625 40.625 C-1.99691406 39.50351563 -2.43132812 38.38203125 -2.87890625 37.2265625 C-6.72551783 26.15582674 -6.17112 13.07403693 -1.375 2.375 C-0.694375 1.199375 -0.694375 1.199375 0 0 Z " fill="#929D60" transform="translate(255,110)"/>
<path d="M0 0 C0.65484375 0.52335937 1.3096875 1.04671875 1.984375 1.5859375 C1.984375 2.2459375 1.984375 2.9059375 1.984375 3.5859375 C-0.515625 2.5859375 -0.515625 2.5859375 -3.015625 1.5859375 C-3.881875 1.2765625 -4.748125 0.9671875 -5.640625 0.6484375 C-8.015625 -0.4140625 -8.015625 -0.4140625 -9.27734375 -1.875 C-11.71137684 -4.03007649 -14.05492246 -4.39067806 -17.203125 -5.1015625 C-18.28980469 -5.35292969 -19.37648438 -5.60429688 -20.49609375 -5.86328125 C-21.32753906 -6.04503906 -22.15898437 -6.22679688 -23.015625 -6.4140625 C-23.015625 -7.0740625 -23.015625 -7.7340625 -23.015625 -8.4140625 C-24.500625 -8.21490234 -24.500625 -8.21490234 -26.015625 -8.01171875 C-32.67911836 -7.11965549 -39.34243787 -6.23118745 -46.015625 -5.4140625 C-31.60654888 -15.02011324 -13.11142954 -8.48168747 0 0 Z " fill="#93A760" transform="translate(323.015625,91.4140625)"/>
<path d="M0 0 C0.33 0 0.66 0 1 0 C1 10.56 1 21.12 1 32 C8.26 32.33 15.52 32.66 23 33 C19.79593538 35.13604308 19.00399253 35.24208908 15.33203125 35.1953125 C14.43935547 35.18886719 13.54667969 35.18242187 12.62695312 35.17578125 C11.69818359 35.15902344 10.76941406 35.14226562 9.8125 35.125 C8.87212891 35.11597656 7.93175781 35.10695313 6.96289062 35.09765625 C4.64167032 35.07409056 2.32096356 35.04119116 0 35 C-1.51322577 31.97354845 -1.00453618 28.89228139 -0.87890625 25.5859375 C-0.85529526 24.85629791 -0.83168427 24.12665833 -0.80735779 23.37490845 C-0.73070246 21.04140861 -0.64668657 18.70823911 -0.5625 16.375 C-0.50928115 14.79428707 -0.45654074 13.21355795 -0.40429688 11.6328125 C-0.27508487 7.75499862 -0.13927041 3.87746514 0 0 Z " fill="#B596B6" transform="translate(101,372)"/>
<path d="M0 0 C0.33 0 0.66 0 1 0 C1.15993522 5.30567705 0.59811298 10.11516787 -0.4375 15.3125 C-0.57220703 16.02728516 -0.70691406 16.74207031 -0.84570312 17.47851562 C-1.85744288 22.71488575 -1.85744288 22.71488575 -3 25 C-3.99 24.67 -4.98 24.34 -6 24 C-6.33 21.03 -6.66 18.06 -7 15 C-6.01 15.33 -5.02 15.66 -4 16 C-3.32198966 13.09926819 -3.32198966 13.09926819 -3 10 C-3.66 9.34 -4.32 8.68 -5 8 C-4.34 6.35 -3.68 4.7 -3 3 C-2.34 3 -1.68 3 -1 3 C-0.67 2.01 -0.34 1.02 0 0 Z " fill="#A27D9C" transform="translate(134,181)"/>
<path d="M0 0 C4.53113153 4.39382451 8.44382005 9.14414409 12.40234375 14.0625 C14.34980393 16.26474068 16.0584744 17.94206396 18.31640625 19.75 C19.20199219 20.4925 20.08757812 21.235 21 22 C21 22.66 21 23.32 21 24 C21.556875 24.2475 22.11375 24.495 22.6875 24.75 C27.07506956 27.12165922 30.55705649 30.42954006 34 34 C29.30451709 33.72379512 27.40067805 31.71535694 24.4296875 28.375 C22.93376071 26.73920255 22.93376071 26.73920255 20 26 C19.54625 25.236875 19.0925 24.47375 18.625 23.6875 C16.77049871 20.62044017 14.80040215 19.22759262 12 17 C10.18540875 15.0272563 8.44818404 13.00138664 6.71484375 10.95703125 C5.23524765 9.26847169 3.71592637 7.76290855 2.0625 6.25 C0 4 0 4 0 0 Z " fill="#60494F" transform="translate(264,171)"/>
<path d="M0 0 C0.33 0 0.66 0 1 0 C1.69677959 17.76787955 1.69677959 17.76787955 -2.57421875 22.88671875 C-3.04472656 23.25410156 -3.51523438 23.62148437 -4 24 C-6.10827055 20.83759418 -6.33817465 19.49342531 -6.625 15.8125 C-6.69976562 14.91144531 -6.77453125 14.01039063 -6.8515625 13.08203125 C-6.90054688 12.39496094 -6.94953125 11.70789063 -7 11 C-5.68 11.33 -4.36 11.66 -3 12 C-2.27743171 7.51866426 -2.27743171 7.51866426 -2 3 C-1.34 3 -0.68 3 0 3 C0 2.01 0 1.02 0 0 Z " fill="#92698E" transform="translate(175,182)"/>
<path d="M0 0 C1.2582283 2.5164566 0.68989504 3.99547313 0.26953125 6.69140625 C-1.23783401 19.60231737 1.2973147 30.03295964 6.9140625 41.58984375 C7.88169089 43.73742187 8.52008831 45.70175626 9 48 C5.05956858 44.59205931 3.25065717 41.83336066 1.67578125 36.8671875 C0.97907199 34.71031377 0.97907199 34.71031377 -1 32 C-2.01335586 26.122536 -2.12488405 20.26357144 -2.1875 14.3125 C-2.20055176 13.58788574 -2.21360352 12.86327148 -2.22705078 12.11669922 C-2.23416387 7.68727841 -1.63891752 4.11348863 0 0 Z " fill="#604356" transform="translate(251,117)"/>
<path d="M0 0 C2.10684903 3.16027355 2.49018259 4.89393126 3.0703125 8.5859375 C3.33134766 10.22949219 3.33134766 10.22949219 3.59765625 11.90625 C3.85869141 13.62328125 3.85869141 13.62328125 4.125 15.375 C4.39763672 17.08042969 4.39763672 17.08042969 4.67578125 18.8203125 C5.421048 23.59450251 6.1141039 28.15778479 6 33 C5.01 32.67 4.02 32.34 3 32 C-0.58165209 10.5989937 -0.58165209 10.5989937 0 0 Z " fill="#8B618C" transform="translate(489,195)"/>
<path d="M0 0 C0.99 0.66 1.98 1.32 3 2 C2.01 2.33 1.02 2.66 0 3 C5.61 3.33 11.22 3.66 17 4 C17.33 6.64 17.66 9.28 18 12 C17.01 12 16.02 12 15 12 C15.33 9.69 15.66 7.38 16 5 C10.72 5 5.44 5 0 5 C-0.66 9.62 -1.32 14.24 -2 19 C-2.33 19 -2.66 19 -3 19 C-3.16820551 17.06263299 -3.33451095 15.12510094 -3.5 13.1875 C-3.5928125 12.10855469 -3.685625 11.02960938 -3.78125 9.91796875 C-4 7 -4 7 -4 4 C-2 1.8125 -2 1.8125 0 0 Z " fill="#9E73A0" transform="translate(183,145)"/>
<path d="M0 0 C10.53166639 4.82116284 18.34584054 15.38265631 22.6875 25.875 C24.10029624 29.74547302 24.25583172 32.90669245 24 37 C22.03147355 34.04721032 21.3338155 31.93627603 20.375 28.5625 C16.8223594 17.74784404 10.57005673 9.8861167 1.90625 2.64453125 C1.2771875 2.10183594 0.648125 1.55914062 0 1 C0 0.67 0 0.34 0 0 Z " fill="#634553" transform="translate(387,86)"/>
<path d="M0 0 C0 0.66 0 1.32 0 2 C0.969375 2.12375 1.93875 2.2475 2.9375 2.375 C4.4534375 2.684375 4.4534375 2.684375 6 3 C6.495 3.99 6.495 3.99 7 5 C5.83597656 4.67515625 5.83597656 4.67515625 4.6484375 4.34375 C-6.31881335 1.51686911 -16.83095044 1.21295207 -28 3 C-27.67 2.01 -27.34 1.02 -27 0 C-18.27869953 -2.06946113 -8.79618191 -1.40738911 0 0 Z " fill="#634158" transform="translate(380,81)"/>
<path d="M0 0 C12.03153321 -0.6493781 22.9368223 -0.01231597 32.3125 8.25 C33.56218216 9.47948981 34.79974712 10.7222114 36 12 C35.01 12.33 34.02 12.66 33 13 C32.505 11.515 32.505 11.515 32 10 C30.25132517 8.91568906 30.25132517 8.91568906 28 8 C27.0925 7.505 26.185 7.01 25.25 6.5 C21.51006208 4.77387481 18.00706933 3.93498284 14 3 C13.34 2.67 12.68 2.34 12 2 C9.9625237 1.77141886 7.91959697 1.58975722 5.875 1.4375 C4.23144531 1.31181641 4.23144531 1.31181641 2.5546875 1.18359375 C1.71164062 1.12300781 0.86859375 1.06242187 0 1 C0 0.67 0 0.34 0 0 Z " fill="#92AA5F" transform="translate(360,82)"/>
<path d="M0 0 C0.66 0.33 1.32 0.66 2 1 C2.4140625 4.16015625 2.4140625 4.16015625 2.625 8.0625 C2.69976562 9.35285156 2.77453125 10.64320313 2.8515625 11.97265625 C2.90054687 12.97167969 2.94953125 13.97070312 3 15 C3.33 15 3.66 15 4 15 C4.1875 17.375 4.1875 17.375 4 20 C0.63348195 22.24434537 -0.21596988 22.20138902 -4.10546875 21.9765625 C-5.57983398 21.89921875 -5.57983398 21.89921875 -7.08398438 21.8203125 C-8.10814453 21.75585938 -9.13230469 21.69140625 -10.1875 21.625 C-11.22326172 21.56828125 -12.25902344 21.5115625 -13.32617188 21.453125 C-15.88481271 21.31163334 -18.44247484 21.16022134 -21 21 C-21 20.67 -21 20.34 -21 20 C-11.1 19.505 -11.1 19.505 -1 19 C-0.835 16.793125 -0.67 14.58625 -0.5 12.3125 C-0.36078125 10.45044922 -0.36078125 10.45044922 -0.21875 8.55078125 C-0.04220063 5.68500671 0.04388528 2.86900043 0 0 Z " fill="#AE8CAE" transform="translate(326,385)"/>
<path d="M0 0 C0.66 0 1.32 0 2 0 C3.87465648 2.52965694 5.54335892 5.16461862 7.24609375 7.8125 C8.11427734 8.8953125 8.11427734 8.8953125 9 10 C9.99 10 10.98 10 12 10 C12.99 12.97 13.98 15.94 15 19 C15.99 19 16.98 19 18 19 C18 20.65 18 22.3 18 24 C9.95808075 17.87282343 4.83715166 9.79949929 0 1 C0 0.67 0 0.34 0 0 Z " fill="#92AF59" transform="translate(258,160)"/>
<path d="M0 0 C3.89511329 0.5554651 6.31875263 1.64677786 9.5 3.9375 C12.57510616 6.14096516 15.43989246 7.70256644 19 9 C19 9.99 19 10.98 19 12 C20.32 12 21.64 12 23 12 C23 12.66 23 13.32 23 14 C26.13498292 15.85776765 28.37471432 16.20140476 32 16 C31.67 16.66 31.34 17.32 31 18 C26.6437577 18.37473052 24.47704509 17.40853164 20.875 15 C19.92238281 14.36578125 18.96976562 13.7315625 17.98828125 13.078125 C11.89829625 8.84299818 5.92878658 4.45690685 0 0 Z " fill="#95A861" transform="translate(302,208)"/>
<path d="M0 0 C0.33 0 0.66 0 1 0 C1.04945048 5.90819071 1.08574364 11.81626084 1.10986328 17.72460938 C1.1199187 19.73439635 1.13356485 21.7441687 1.15087891 23.75390625 C1.17514724 26.64326588 1.18648771 29.53243202 1.1953125 32.421875 C1.20563507 33.31992859 1.21595764 34.21798218 1.22659302 35.14324951 C1.22674408 35.98381897 1.22689514 36.82438843 1.22705078 37.69042969 C1.231492 38.42767273 1.23593323 39.16491577 1.24050903 39.92449951 C0.96463374 42.30519726 0.17901432 43.93016431 -1 46 C-2.66666667 46 -4.33333333 46 -6 46 C-6 45.34 -6 44.68 -6 44 C-4.02 43.505 -4.02 43.505 -2 43 C-1.23947039 40.27136449 -0.85898083 37.79515668 -0.79467773 34.96582031 C-0.77473251 34.18531311 -0.75478729 33.40480591 -0.73423767 32.60064697 C-0.70916893 31.3519986 -0.70916893 31.3519986 -0.68359375 30.078125 C-0.66281265 29.21813904 -0.64203156 28.35815308 -0.62062073 27.47210693 C-0.55536261 24.73148402 -0.49635083 21.99076725 -0.4375 19.25 C-0.39429219 17.3893133 -0.35067718 15.52863602 -0.30664062 13.66796875 C-0.19970558 9.11207477 -0.09837149 4.5560866 0 0 Z " fill="#7D5782" transform="translate(258,335)"/>
<path d="M0 0 C1.60080151 4.00200378 0.29279692 7.04556236 -1 11 C-1.66 11 -2.32 11 -3 11 C-3 12.32 -3 13.64 -3 15 C-5.8399341 18.5877274 -9.02720806 20.75238023 -13.4375 21.875 C-14.7059375 21.936875 -14.7059375 21.936875 -16 22 C-13.86274108 19.78358334 -11.73140926 17.78762592 -9.3125 15.875 C-6.93242212 14.20909046 -6.93242212 14.20909046 -6 12 C-5.34 12 -4.68 12 -4 12 C-3.79503906 11.38511719 -3.59007812 10.77023437 -3.37890625 10.13671875 C-2.25260417 6.7578125 -1.12630208 3.37890625 0 0 Z " fill="#835582" transform="translate(409,381)"/>
<path d="M0 0 C0.66 0.33 1.32 0.66 2 1 C1.28972656 1.62648438 0.57945312 2.25296875 -0.15234375 2.8984375 C-1.07144531 3.71570313 -1.99054688 4.53296875 -2.9375 5.375 C-4.31228516 6.59316406 -4.31228516 6.59316406 -5.71484375 7.8359375 C-8.03601395 9.78709347 -8.03601395 9.78709347 -9 12 C-9.66 12 -10.32 12 -11 12 C-11.15855469 12.62648438 -11.31710937 13.25296875 -11.48046875 13.8984375 C-13.40994854 20.65694683 -13.40994854 20.65694683 -16.6875 22.5625 C-17.450625 22.706875 -18.21375 22.85125 -19 23 C-17.85569823 19.12697862 -16.76679902 15.99736561 -14 13 C-13.34 13 -12.68 13 -12 13 C-11.77570313 12.26394531 -11.55140625 11.52789062 -11.3203125 10.76953125 C-9.70735538 7.38613894 -7.8491949 5.93721152 -4.875 3.6875 C-3.96492188 2.99011719 -3.05484375 2.29273437 -2.1171875 1.57421875 C-1.41851562 1.05472656 -0.71984375 0.53523438 0 0 Z " fill="#93A75C" transform="translate(275,86)"/>
<path d="M0 0 C0.99 0.66 1.98 1.32 3 2 C3.6875 5.625 3.6875 5.625 4 9 C0.25 12 0.25 12 -2 12 C-2.33 12.66 -2.66 13.32 -3 14 C-5.89345341 15.28597929 -7.14443099 14.95833722 -10.25 14.0625 C-11.1575 13.711875 -12.065 13.36125 -13 13 C-13 12.67 -13 12.34 -13 12 C-10.87607494 11.3299166 -8.75082476 10.66403203 -6.625 10 C-5.44164062 9.62875 -4.25828125 9.2575 -3.0390625 8.875 C0 8 0 8 2 8 C1.67 7.236875 1.34 6.47375 1 5.6875 C0 3 0 3 0 0 Z " fill="#805182" transform="translate(250,213)"/>
<path d="M0 0 C-1.299375 0.8353125 -1.299375 0.8353125 -2.625 1.6875 C-9.5940513 6.20215975 -9.5940513 6.20215975 -14 13 C-14.66 13 -15.32 13 -16 13 C-16.4021875 13.86625 -16.4021875 13.86625 -16.8125 14.75 C-18.01719859 17.0325868 -19.40798115 18.9737942 -21 21 C-20.46231128 17.1286412 -19.422527 15.02815875 -17 12 C-16.67 11.01 -16.34 10.02 -16 9 C-15.34 9 -14.68 9 -14 9 C-14 8.01 -14 7.02 -14 6 C-13.01 5.67 -12.02 5.34 -11 5 C-10.67 4.34 -10.34 3.68 -10 3 C-9.34 3 -8.68 3 -8 3 C-8 2.34 -8 1.68 -8 1 C-4.93251126 -0.86240388 -3.40254489 -1.2151946 0 0 Z " fill="#614059" transform="translate(277,86)"/>
<path d="M0 0 C0 4.2650016 -2.44473414 6.50032379 -5 9.6875 C-5.71542969 10.59725586 -5.71542969 10.59725586 -6.4453125 11.52539062 C-7.62376394 13.02202396 -8.81105188 14.51169173 -10 16 C-10.66 14.68 -11.32 13.36 -12 12 C-11.01 11.34 -10.02 10.68 -9 10 C-8.566875 8.865625 -8.13375 7.73125 -7.6875 6.5625 C-5.71206061 2.39212796 -4.2252741 1.59621466 0 0 Z " fill="#7A477D" transform="translate(451,389)"/>
<path d="M0 0 C2.31 0 4.62 0 7 0 C7.66 1.98 8.32 3.96 9 6 C11.97 6.495 11.97 6.495 15 7 C15 8.65 15 10.3 15 12 C15.66 12 16.32 12 17 12 C17.33 12.99 17.66 13.98 18 15 C11.37807152 12.85761137 7.13517397 8.41850383 3 3 C2.01769502 1.9826127 1.02530403 0.97403883 0 0 Z " fill="#91AD59" transform="translate(278,187)"/>
<path d="M0 0 C2.97 0.495 2.97 0.495 6 1 C6.33 1.99 6.66 2.98 7 4 C8.99117408 4.69258229 10.9921136 5.35747635 13 6 C14.875 7.5 14.875 7.5 16 9 C16 9.66 16 10.32 16 11 C17.32 11 18.64 11 20 11 C20.33 10.34 20.66 9.68 21 9 C23.5625 8.375 23.5625 8.375 26 8 C24.35 9.98 22.7 11.96 21 14 C18.21788056 13.62403791 16.4120716 13.32681541 14.1875 11.5625 C13 10 13 10 13 8 C12.34 7.773125 11.68 7.54625 11 7.3125 C7.09257775 5.60300277 3.47578462 3.47531064 0 1 C0 0.67 0 0.34 0 0 Z " fill="#644856" transform="translate(312,85)"/>
<path d="M0 0 C-1.969742 2.11043785 -3.57398993 3.79308082 -6.1875 5.0625 C-8.36058256 5.9194894 -8.36058256 5.9194894 -9 9 C-5.37 9 -1.74 9 2 9 C2.33 8.01 2.66 7.02 3 6 C3.66 5.67 4.32 5.34 5 5 C5 6.65 5 8.3 5 10 C0.05 10 -4.9 10 -10 10 C-9.67 7.03 -9.34 4.06 -9 1 C-5.8035914 -0.06546953 -3.34252724 -0.07427838 0 0 Z " fill="#602567" transform="translate(231,182)"/>
<path d="M0 0 C3.54792984 1.30383288 6.51253206 2.86084678 9.625 5 C10.38039063 5.515625 11.13578125 6.03125 11.9140625 6.5625 C12.60242188 7.036875 13.29078125 7.51125 14 8 C17.26281174 10.17520782 18.2340908 10.28244319 22 10 C22.99 9.67 23.98 9.34 25 9 C25 9.99 25 10.98 25 12 C22.06699268 13.46650366 20.27962656 13.36440295 17 13 C14.82848207 11.86292917 12.84668461 10.58616627 10.83203125 9.19140625 C8.90370135 7.82784504 8.90370135 7.82784504 6 7 C6 6.34 6 5.68 6 5 C5.38125 4.690625 4.7625 4.38125 4.125 4.0625 C2.75 3.375 1.375 2.6875 0 2 C0 1.34 0 0.68 0 0 Z " fill="#634458" transform="translate(311,215)"/>
<path d="M0 0 C0.99 0 1.98 0 3 0 C1.6836283 2.91753534 0.2402265 4.91927067 -2 7.1875 C-5.46537715 11.07548412 -6.33249237 14.92464025 -7 20 C-7.33 20 -7.66 20 -8 20 C-8.33 16.7 -8.66 13.4 -9 10 C-8.34 10 -7.68 10 -7 10 C-6.34 7.69 -5.68 5.38 -5 3 C-4.01 3.33 -3.02 3.66 -2 4 C-1.67 3.01 -1.34 2.02 -1 1 C-0.67 0.67 -0.34 0.34 0 0 Z " fill="#8C598F" transform="translate(347,312)"/>
<path d="M0 0 C3.15069422 1.36689554 5.00891774 2.85657885 7.1875 5.5 C7.95126953 6.41265625 7.95126953 6.41265625 8.73046875 7.34375 C11.06506449 10.38949951 11.38123582 12.92262023 11.3671875 16.7578125 C10.71168124 20.76058478 8.38345652 23.79935839 6 27 C6 24 6 24 7 21.8125 C8.29948405 18.15770112 8.61469543 14.80811315 8 11 C6.33969988 7.75954128 6.33969988 7.75954128 4 5 C3.2575 4.05125 2.515 3.1025 1.75 2.125 C1.1725 1.42375 0.595 0.7225 0 0 Z " fill="#92A260" transform="translate(321,265)"/>
<path d="M0 0 C0.99 0.33 1.98 0.66 3 1 C3.95261487 5.76307437 4.08333357 10.1666528 4 15 C3.01 15.495 3.01 15.495 2 16 C1.67 12.37 1.34 8.74 1 5 C0.34 8.96 -0.32 12.92 -1 17 C-1.33 17 -1.66 17 -2 17 C-2.22084624 10.90218999 -2.01167675 5.78357065 0 0 Z " fill="#A2769C" transform="translate(149,175)"/>
<path d="M0 0 C1.74958559 2.62437839 2.4748682 4.18203372 3.2890625 7.125 C3.50820312 7.91390625 3.72734375 8.7028125 3.953125 9.515625 C4.17484375 10.33546875 4.3965625 11.1553125 4.625 12 C4.85445313 12.81984375 5.08390625 13.6396875 5.3203125 14.484375 C7 20.60323661 7 20.60323661 7 24 C6.34 24 5.68 24 5 24 C4.15190799 21.50418638 3.32153079 19.00455875 2.5 16.5 C2.26152344 15.80390625 2.02304688 15.1078125 1.77734375 14.390625 C0.16290994 9.40894354 -0.23579709 5.23469533 0 0 Z " fill="#8A638D" transform="translate(101,157)"/>
<path d="M0 0 C1.06992187 0.00902344 2.13984375 0.01804687 3.2421875 0.02734375 C5.87002439 0.05080658 8.49739406 0.08363541 11.125 0.125 C11.125 0.785 11.125 1.445 11.125 2.125 C12.445 2.785 13.765 3.445 15.125 4.125 C9.4671543 3.22488818 9.4671543 3.22488818 7.33203125 2.6015625 C-1.52634747 0.68877984 -11.15517425 2.13189697 -19.875 4.125 C-14.5726722 -1.1773278 -6.95556303 -0.11135754 0 0 Z " fill="#634A54" transform="translate(296.875,80.875)"/>
<path d="M0 0 C0.66 0 1.32 0 2 0 C1.48400816 7.8822202 -0.0921453 15.34458305 -2 23 C-2.33 23 -2.66 23 -3 23 C-3.433422 14.84524526 -2.29370226 7.82316305 0 0 Z " fill="#875E88" transform="translate(138,158)"/>
<path d="M0 0 C0 0.33 0 0.66 0 1 C-12.4116568 1.70735857 -24.61304305 2.39541109 -37 1 C-37 0.67 -37 0.34 -37 0 C-24.56664001 -1.14309533 -12.44653437 -0.80060118 0 0 Z " fill="#926B93" transform="translate(270,6)"/>
<path d="M0 0 C0.2475 0.60585938 0.495 1.21171875 0.75 1.8359375 C2.21070268 4.36477902 3.48421165 5.19137061 6 6.625 C8.3576762 7.98586457 10.06091111 9.06091111 12 11 C8.7 11 5.4 11 2 11 C1 8 1 8 1 5 C0.67 5.66 0.34 6.32 0 7 C-0.66 7 -1.32 7 -2 7 C-1.125 1.125 -1.125 1.125 0 0 Z " fill="#814E84" transform="translate(335,392)"/>
<path d="M0 0 C0.33 0 0.66 0 1 0 C1.05402274 2.10388569 1.09280256 4.20816714 1.125 6.3125 C1.14820313 7.48425781 1.17140625 8.65601563 1.1953125 9.86328125 C1 13 1 13 -1 16 C-1.70812814 18.32108669 -2.38024152 20.65377147 -3 23 C-4.03513279 19.89460162 -3.98135692 18.72245445 -3.4765625 15.5859375 C-3.3425 14.74289063 -3.2084375 13.89984375 -3.0703125 13.03125 C-2.92335937 12.1546875 -2.77640625 11.278125 -2.625 10.375 C-2.48578125 9.49070313 -2.3465625 8.60640625 -2.203125 7.6953125 C-1.13687614 1.13687614 -1.13687614 1.13687614 0 0 Z " fill="#662969" transform="translate(150,179)"/>
<path d="M0 0 C6.09918302 5.38163208 11.27933165 12.97021437 13 21 C12.71136728 22.34371874 12.38460758 23.68054333 12 25 C11.18395001 23.0848421 10.37229368 21.16781166 9.5625 19.25 C9.11003906 18.18265625 8.65757812 17.1153125 8.19140625 16.015625 C7 13 7 13 6.52734375 10.671875 C6.35332031 10.12015625 6.17929687 9.5684375 6 9 C5.01 8.67 4.02 8.34 3 8 C3 7.01 3 6.02 3 5 C2.01 4.67 1.02 4.34 0 4 C0 2.68 0 1.36 0 0 Z " fill="#95AB5E" transform="translate(396,95)"/>
<path d="M0 0 C5.94 0 11.88 0 18 0 C18.33 0.66 18.66 1.32 19 2 C22.02934491 2.65772428 22.02934491 2.65772428 25 3 C25 3.33 25 3.66 25 4 C16.39235455 4.46112386 8.38520694 2.72848437 0 1 C0 0.67 0 0.34 0 0 Z " fill="#88598A" transform="translate(203,489)"/>
<path d="M0 0 C1.1240625 0.63421875 2.248125 1.2684375 3.40625 1.921875 C8.05835831 4.24792916 12.36243411 4.84836618 17.5 5.25 C18.32242188 5.32734375 19.14484375 5.4046875 19.9921875 5.484375 C21.99351337 5.67054485 23.99662687 5.83733295 26 6 C26 6.33 26 6.66 26 7 C21.05 7.33 16.1 7.66 11 8 C11 7.34 11 6.68 11 6 C8.03 5.67 5.06 5.34 2 5 C1.34 3.35 0.68 1.7 0 0 Z " fill="#A47FA3" transform="translate(214,401)"/>
<path d="M0 0 C1.9375 0.8125 1.9375 0.8125 4 2 C4.33 2.99 4.66 3.98 5 5 C5.99 5.33 6.98 5.66 8 6 C7.855625 6.804375 7.71125 7.60875 7.5625 8.4375 C6.90311661 12.61359481 6.43908647 16.79598059 6 21 C5.67 21 5.34 21 5 21 C4.96132813 19.85724609 4.96132813 19.85724609 4.921875 18.69140625 C4.53517629 11.65173196 3.36945112 6.20605881 0 0 Z " fill="#865586" transform="translate(405,359)"/>
<path d="M0 0 C3.74525799 3.74525799 3.68909949 7.98270909 4 13 C4.66 13 5.32 13 6 13 C6.125 15.875 6.125 15.875 6 19 C5.34 19.66 4.68 20.32 4 21 C3.32595716 18.43923903 2.660586 15.87673417 2 13.3125 C1.71382812 12.2306543 1.71382812 12.2306543 1.421875 11.12695312 C0.45134572 7.33149039 -0.24955239 3.95384561 0 0 Z " fill="#815380" transform="translate(11,294)"/>
<path d="M0 0 C2.39706123 -0.10854617 4.78915838 -0.18753157 7.1875 -0.25 C7.86103516 -0.28351563 8.53457031 -0.31703125 9.22851562 -0.3515625 C12.99375127 -0.42503051 14.83108854 -0.11393243 17.98828125 2.015625 C18.98408203 2.99789063 18.98408203 2.99789063 20 4 C12.91923749 4.40850553 6.80074041 2.90420731 0 1 C0 0.67 0 0.34 0 0 Z " fill="#7A457A" transform="translate(185,485)"/>
<path d="M0 0 C7.92 0 15.84 0 24 0 C21 3 21 3 17.3828125 3.109375 C15.96226461 3.00582104 14.54286692 2.8853999 13.125 2.75 C12.41730469 2.69714844 11.70960938 2.64429688 10.98046875 2.58984375 C7.2592788 2.29187137 3.64037413 1.82800666 0 1 C0 0.67 0 0.34 0 0 Z " fill="#642E67" transform="translate(303,406)"/>
<path d="M0 0 C0.33 0 0.66 0 1 0 C2.32915021 7.97490128 2.08801359 15.94186719 2 24 C0.34546819 21.07537294 -0.28465926 18.83596161 -0.44921875 15.48828125 C-0.49240234 14.64845703 -0.53558594 13.80863281 -0.58007812 12.94335938 C-0.61552734 12.07517578 -0.65097656 11.20699219 -0.6875 10.3125 C-0.73455078 9.43271484 -0.78160156 8.55292969 -0.83007812 7.64648438 C-1.05533729 2.85695762 -1.05533729 2.85695762 -1 1 C-0.67 0.67 -0.34 0.34 0 0 Z " fill="#865888" transform="translate(9,269)"/>
<path d="M0 0 C2.97 0.495 2.97 0.495 6 1 C2.28587284 5.8747919 -1.77180471 9.74536187 -7 13 C-7.66 13 -8.32 13 -9 13 C-9 12.01 -9 11.02 -9 10 C-6 8 -6 8 -3 8 C-2.67 7.01 -2.34 6.02 -2 5 C-1.01 5 -0.02 5 1 5 C0.67 3.35 0.34 1.7 0 0 Z " fill="#8F6693" transform="translate(406,433)"/>
<path d="M0 0 C0.33 0 0.66 0 1 0 C2.19388403 25.9701529 2.19388403 25.9701529 2 37 C1.67 37 1.34 37 1 37 C1 33.04 1 29.08 1 25 C0.34 25 -0.32 25 -1 25 C-1.33 24.01 -1.66 23.02 -2 22 C-1.67 21.67 -1.34 21.34 -1 21 C-0.84313751 19.44051458 -0.74923361 17.87457332 -0.68359375 16.30859375 C-0.62075195 14.89223633 -0.62075195 14.89223633 -0.55664062 13.44726562 C-0.51732422 12.45404297 -0.47800781 11.46082031 -0.4375 10.4375 C-0.37272461 8.94186523 -0.37272461 8.94186523 -0.30664062 7.41601562 C-0.20019702 4.9441585 -0.09818072 2.4721969 0 0 Z " fill="#7A4881" transform="translate(493,239)"/>
<path d="M0 0 C1.63593342 4.04944013 0.29213529 6.96188392 -1.125 10.9375 C-1.54007812 12.14277344 -1.95515625 13.34804687 -2.3828125 14.58984375 C-4.10350953 18.21827009 -6.01510179 20.35178222 -9 23 C-7.96326824 19.54422747 -6.73021157 16.37596004 -5.0625 13.1875 C-2.86981055 8.94173055 -1.3938069 4.56154987 0 0 Z " fill="#604754" transform="translate(409,145)"/>
<path d="M0 0 C2.14336161 3.4766338 2.21277626 6.21229195 2.125 10.25 C2.10695312 11.32765625 2.08890625 12.4053125 2.0703125 13.515625 C2.04710937 14.33546875 2.02390625 15.1553125 2 16 C-0.79024052 11.81463922 -1.10154594 7.94149735 -2 3 C-6.95 2.67 -11.9 2.34 -17 2 C-17 1.67 -17 1.34 -17 1 C-15.85660156 1.01160156 -14.71320313 1.02320313 -13.53515625 1.03515625 C-12.04427246 1.04453288 -10.55338691 1.05363321 -9.0625 1.0625 C-8.30775391 1.07087891 -7.55300781 1.07925781 -6.77539062 1.08789062 C-4.85005687 1.09652441 -2.92464419 1.05224333 -1 1 C-0.67 0.67 -0.34 0.34 0 0 Z " fill="#BFA2C0" transform="translate(160,148)"/>
<path d="M0 0 C1.9609375 0.015625 1.9609375 0.015625 4.375 0.25 C5.16648437 0.31703125 5.95796875 0.3840625 6.7734375 0.453125 C9.35133561 1.08629296 10.32367504 1.98841004 12 4 C11.01 4.495 11.01 4.495 10 5 C7.375 4.0625 7.375 4.0625 5 3 C2.9754262 4.93254772 1.57894208 6.63158688 0 9 C-0.87890625 2.84765625 -0.87890625 2.84765625 -1 1 C-0.67 0.67 -0.34 0.34 0 0 Z " fill="#8B5891" transform="translate(339,377)"/>
<path d="M0 0 C0.66 0 1.32 0 2 0 C1.49159115 4.82630375 0.13041456 7.8601092 -2.5625 11.875 C-3.52349609 13.32519531 -3.52349609 13.32519531 -4.50390625 14.8046875 C-4.99761719 15.52914063 -5.49132812 16.25359375 -6 17 C-6.66 16.01 -7.32 15.02 -8 14 C-7.01 13.67 -6.02 13.34 -5 13 C-5.33 12.01 -5.66 11.02 -6 10 C-5.2884375 9.3503125 -5.2884375 9.3503125 -4.5625 8.6875 C-2.76313043 6.97690387 -2.76313043 6.97690387 -2 4 C-1.34 4 -0.68 4 0 4 C0 2.68 0 1.36 0 0 Z " fill="#8C5F8C" transform="translate(460,371)"/>
<path d="M0 0 C0.66 0 1.32 0 2 0 C2 0.66 2 1.32 2 2 C-0.47440578 4.24407545 -3.26248321 6.09118727 -6 8 C-7.07507813 8.76183594 -7.07507813 8.76183594 -8.171875 9.5390625 C-8.85765625 10.00054687 -9.5434375 10.46203125 -10.25 10.9375 C-10.87390625 11.35902344 -11.4978125 11.78054687 -12.140625 12.21484375 C-14.48087715 13.20305947 -15.6511572 12.83664534 -18 12 C-16.27136297 10.89500435 -14.54206612 9.79104086 -12.8125 8.6875 C-11.84957031 8.07261719 -10.88664062 7.45773438 -9.89453125 6.82421875 C-8.03479007 5.65215515 -6.15807636 4.50637573 -4.26171875 3.39453125 C-1.91187894 2.06573041 -1.91187894 2.06573041 0 0 Z " fill="#614256" transform="translate(354,211)"/>
<path d="M0 0 C7.26 0 14.52 0 22 0 C22 0.66 22 1.32 22 2 C16.81062407 3.52102398 13.34227913 4.33556978 8 3 C7.29101562 2.82855469 6.58203125 2.65710938 5.8515625 2.48046875 C3.89686376 2.0037966 1.94789222 1.50376523 0 1 C0 0.67 0 0.34 0 0 Z " fill="#622C66" transform="translate(218,226)"/>
<path d="M0 0 C0.33 0.66 0.66 1.32 1 2 C1.66 2 2.32 2 3 2 C2.67 2.66 2.34 3.32 2 4 C1.67 4 1.34 4 1 4 C1.020625 5.19625 1.04125 6.3925 1.0625 7.625 C1.06882571 11.18004869 0.69888875 14.50555624 0 18 C-0.33 18 -0.66 18 -1 18 C-4.05202312 6.74566474 -4.05202312 6.74566474 -2 1 C-1.34 0.67 -0.68 0.34 0 0 Z " fill="#885588" transform="translate(165,159)"/>
<path d="M0 0 C1.98 0.66 3.96 1.32 6 2 C2.74582055 3.79567975 -0.46571529 4.77381863 -4.0625 5.6875 C-5.62677734 6.09548828 -5.62677734 6.09548828 -7.22265625 6.51171875 C-10 7 -10 7 -13 6 C-11.2097939 5.32942113 -9.41778511 4.6636531 -7.625 4 C-6.62726563 3.62875 -5.62953125 3.2575 -4.6015625 2.875 C-2 2 -2 2 0 2 C0 1.34 0 0.68 0 0 Z " fill="#865F87" transform="translate(319,481)"/>
<path d="M0 0 C-1.5949008 1.19991599 -3.20126147 2.38461318 -4.8125 3.5625 C-5.70582031 4.22378906 -6.59914063 4.88507813 -7.51953125 5.56640625 C-8.33808594 6.03949219 -9.15664063 6.51257813 -10 7 C-10.99 6.67 -11.98 6.34 -13 6 C-8.62017804 0.28189911 -8.62017804 0.28189911 -5.9375 -0.9375 C-3.78307394 -1.00699761 -2.07244624 -0.55581198 0 0 Z " fill="#7F507F" transform="translate(391,451)"/>
<path d="M0 0 C1.32 0.33 2.64 0.66 4 1 C4.22245393 2.60226955 4.42746669 4.20696767 4.625 5.8125 C4.74101562 6.70582031 4.85703125 7.59914063 4.9765625 8.51953125 C5 11 5 11 3 14 C2.49307308 12.4188708 1.99473557 10.83498617 1.5 9.25 C1.2215625 8.36828125 0.943125 7.4865625 0.65625 6.578125 C0 4 0 4 0 0 Z " fill="#835483" transform="translate(16,315)"/>
<path d="M0 0 C2.45840605 -0.02691685 4.91651882 -0.04679802 7.375 -0.0625 C8.07367188 -0.07087891 8.77234375 -0.07925781 9.4921875 -0.08789062 C14.7734375 -0.11328125 14.7734375 -0.11328125 17 1 C17 1.66 17 2.32 17 3 C17.66 3 18.32 3 19 3 C18.7834375 3.8353125 18.7834375 3.8353125 18.5625 4.6875 C17.97230872 7.11384195 17.476571 9.54906345 17 12 C16.67 12 16.34 12 16 12 C15.34 8.7 14.68 5.4 14 2 C7.07 1.505 7.07 1.505 0 1 C0 0.67 0 0.34 0 0 Z " fill="#B895B9" transform="translate(103,149)"/>
<path d="M0 0 C3.99996286 1.33332095 4.83782337 3.4957827 7 7 C6.34 7 5.68 7 5 7 C5.26676204 8.98491642 5.26676204 8.98491642 6 11 C6.99 11.33 7.98 11.66 9 12 C8.34 13.32 7.68 14.64 7 16 C5.82845707 13.71070947 4.66261926 11.41881638 3.5 9.125 C3.16613281 8.47402344 2.83226562 7.82304687 2.48828125 7.15234375 C0 2.2265625 0 2.2265625 0 0 Z " fill="#8A5F8D" transform="translate(30,354)"/>
<path d="M0 0 C2 3 2 3 3 8 C6.96 8.33 10.92 8.66 15 9 C15 9.33 15 9.66 15 10 C14.0925 10.144375 13.185 10.28875 12.25 10.4375 C9.16362271 10.90784596 9.16362271 10.90784596 6.875 11.625 C5 12 5 12 1 11 C0.67 7.37 0.34 3.74 0 0 Z " fill="#9F74A1" transform="translate(159,216)"/>
<path d="M0 0 C0.33 0 0.66 0 1 0 C1.99 5.61 2.98 11.22 4 17 C1 16 1 16 -0.25 13.5625 C-1.23939442 8.86287649 -0.68964191 4.71565958 0 0 Z " fill="#845383" transform="translate(201,196)"/>
<path d="M0 0 C0.66 0.33 1.32 0.66 2 1 C1.38125 1.556875 0.7625 2.11375 0.125 2.6875 C-2.06106379 5.06645178 -2.98785699 6.96357096 -4 10 C-4.66 10 -5.32 10 -6 10 C-6 10.66 -6 11.32 -6 12 C-6.99 12 -7.98 12 -9 12 C-9 8 -9 8 -7.28515625 6.11328125 C-6.55167969 5.51902344 -5.81820312 4.92476563 -5.0625 4.3125 C-4.33160156 3.71050781 -3.60070312 3.10851562 -2.84765625 2.48828125 C-2.23792969 1.99714844 -1.62820312 1.50601563 -1 1 C-0.67 0.67 -0.34 0.34 0 0 Z " fill="#733F79" transform="translate(91,65)"/>
<path d="M0 0 C-0.34485543 2.8842454 -0.78255407 3.8207818 -3.06640625 5.703125 C-3.89011719 6.21359375 -4.71382813 6.7240625 -5.5625 7.25 C-6.38878906 7.77078125 -7.21507813 8.2915625 -8.06640625 8.828125 C-9.02353516 9.40820312 -9.02353516 9.40820312 -10 10 C-10.33 9.01 -10.66 8.02 -11 7 C-9.54634731 5.82750647 -8.08692581 4.66216184 -6.625 3.5 C-5.40683594 2.52546875 -5.40683594 2.52546875 -4.1640625 1.53125 C-2 0 -2 0 0 0 Z " fill="#7B467F" transform="translate(112,50)"/>
<path d="M0 0 C0 0.33 0 0.66 0 1 C6.93 1.495 6.93 1.495 14 2 C14 2.33 14 2.66 14 3 C10.97910522 3.02716089 7.95845871 3.04691657 4.9375 3.0625 C4.08994141 3.07087891 3.24238281 3.07925781 2.36914062 3.08789062 C-2.5361722 3.10683006 -7.16444755 2.83326345 -12 2 C-12 1.67 -12 1.34 -12 1 C-7.93631321 0.22596442 -4.13574827 -0.0984702 0 0 Z " fill="#612565" transform="translate(233,490)"/>
<path d="M0 0 C0.66 0 1.32 0 2 0 C1.88557539 1.60495567 1.75805306 3.20898119 1.625 4.8125 C1.55539063 5.70582031 1.48578125 6.59914063 1.4140625 7.51953125 C1 10 1 10 -1 13 C-1 11.35 -1 9.7 -1 8 C-1.99 7.67 -2.98 7.34 -4 7 C-2.92598892 4.08482708 -2.22189824 2.22189824 0 0 Z " fill="#7F4B81" transform="translate(197,331)"/>
<path d="M0 0 C5.94 0.33 11.88 0.66 18 1 C18 1.33 18 1.66 18 2 C16.33710938 2.19916016 16.33710938 2.19916016 14.640625 2.40234375 C13.1770673 2.58059757 11.71352651 2.75899028 10.25 2.9375 C9.52039063 3.02451172 8.79078125 3.11152344 8.0390625 3.20117188 C4.62415558 3.62027409 1.32396457 4.117274 -2 5 C-2.33 4.34 -2.66 3.68 -3 3 C-2.01 2.67 -1.02 2.34 0 2 C0 1.34 0 0.68 0 0 Z " fill="#956493" transform="translate(217,167)"/>
<path d="M0 0 C0.33 0 0.66 0 1 0 C1.10957031 0.56847656 1.21914062 1.13695312 1.33203125 1.72265625 C2.12507865 5.58473263 2.95561944 9.16597443 4.625 12.75 C5.93860713 15.85488959 6.30089366 17.69016969 6 21 C1.34677939 14.02016909 -0.53362733 8.4046304 0 0 Z " fill="#93AC5B" transform="translate(252,139)"/>
<path d="M0 0 C0.639375 0.268125 1.27875 0.53625 1.9375 0.8125 C5.22604163 2.0876488 8.54993865 3.16243808 11.9140625 4.21875 C14 5 14 5 17 7 C13.37 6.67 9.74 6.34 6 6 C6 5.34 6 4.68 6 4 C5.01 4.33 4.02 4.66 3 5 C0.8125 4.0625 0.8125 4.0625 -1 3 C-0.67 2.01 -0.34 1.02 0 0 Z " fill="#9E78A0" transform="translate(351,360)"/>
<path d="M0 0 C0 0.66 0 1.32 0 2 C-1.134375 1.979375 -2.26875 1.95875 -3.4375 1.9375 C-6.81575674 1.58422523 -6.81575674 1.58422523 -8 3 C-10.65463121 3.45459858 -13.32189138 3.70243238 -16 4 C-15.67 3.01 -15.34 2.02 -15 1 C-10.03926578 -0.32286246 -5.08888488 -0.08893197 0 0 Z " fill="#682969" transform="translate(150,329)"/>
<path d="M0 0 C2.19576787 3.2936518 2.36287182 4.18984584 2 8 C1 10.8125 1 10.8125 0 13 C-0.66 13 -1.32 13 -2 13 C-2.33 13.66 -2.66 14.32 -3 15 C-2.44854729 9.76119922 -1.57077907 5.02649303 0 0 Z " fill="#967093" transform="translate(184,205)"/>
<path d="M0 0 C0.33 0 0.66 0 1 0 C1.08159574 4.16138263 0.98248524 7.9472484 0 12 C-2 12 -2 12 -3.75 10.3125 C-5 8 -5 8 -4.1875 5.25 C-3.795625 4.5075 -3.40375 3.765 -3 3 C-2.34 3 -1.68 3 -1 3 C-0.67 2.01 -0.34 1.02 0 0 Z " fill="#915D92" transform="translate(134,181)"/>
<path d="M0 0 C1.4540625 0.0309375 1.4540625 0.0309375 2.9375 0.0625 C-0.27010251 3.86885497 -3.46996109 7.60813567 -7.0625 11.0625 C-7.0625 9.7425 -7.0625 8.4225 -7.0625 7.0625 C-6.4025 7.0625 -5.7425 7.0625 -5.0625 7.0625 C-4.918125 6.093125 -4.77375 5.12375 -4.625 4.125 C-3.88189799 0.07922241 -3.88189799 0.07922241 0 0 Z " fill="#936893" transform="translate(212.0625,171.9375)"/>
<path d="M0 0 C0.99 0.33 1.98 0.66 3 1 C1.58192622 5.47238653 -0.11304374 9.71146306 -2 14 C-2.33 14 -2.66 14 -3 14 C-2.58846263 9.02906176 -2.20399168 4.55491614 0 0 Z " fill="#8B5D8D" transform="translate(202,320)"/>
<path d="M0 0 C4.62 0 9.24 0 14 0 C14 0.66 14 1.32 14 2 C11 4 11 4 7.8125 3.625 C6.884375 3.41875 5.95625 3.2125 5 3 C5 2.67 5 2.34 5 2 C3.35 1.67 1.7 1.34 0 1 C0 0.67 0 0.34 0 0 Z " fill="#642767" transform="translate(124,226)"/>
<path d="M0 0 C1.125 1.5 1.125 1.5 2 4 C1.57598348 6.7773082 0.81108065 9.29639783 0 12 C0.99 12 1.98 12 3 12 C2.67 12.99 2.34 13.98 2 15 C1.34 15 0.68 15 0 15 C-0.33 16.65 -0.66 18.3 -1 20 C-1.33 20 -1.66 20 -2 20 C-1.85919445 17.22882696 -1.71256882 14.45817359 -1.5625 11.6875 C-1.52318359 10.90181641 -1.48386719 10.11613281 -1.44335938 9.30664062 C-1.40146484 8.54931641 -1.35957031 7.79199219 -1.31640625 7.01171875 C-1.27974854 6.31522217 -1.24309082 5.61872559 -1.20532227 4.90112305 C-1 3 -1 3 0 0 Z " fill="#9A6E9E" transform="translate(10,207)"/>
<path d="M0 0 C1.07310858 3.27185553 0.89263102 5.42947592 0.0625 8.75 C-0.13214844 9.54921875 -0.32679687 10.3484375 -0.52734375 11.171875 C-0.76130859 12.07679688 -0.76130859 12.07679688 -1 13 C-2.32 13.33 -3.64 13.66 -5 14 C-4.34580901 8.93001981 -2.1453591 4.58009223 0 0 Z " fill="#8A588B" transform="translate(31,142)"/>
<path d="M0 0 C0.33 0 0.66 0 1 0 C1.46485422 3.99774632 1.34488758 5.54353115 -1.125 8.8125 C-4.23651429 11.17995652 -6.14635352 11.73114094 -10 12 C-9.34 11.01 -8.68 10.02 -8 9 C-5.375 8.8125 -5.375 8.8125 -3 9 C-3 8.01 -3 7.02 -3 6 C-2.34 6 -1.68 6 -1 6 C-0.67 4.02 -0.34 2.04 0 0 Z " fill="#906A8F" transform="translate(385,375)"/>
<path d="M0 0 C0.66 0.33 1.32 0.66 2 1 C2 1.66 2 2.32 2 3 C2.99 3 3.98 3 5 3 C4.5020163 6.73487777 4.12508244 8.81237635 2 12 C-1 7.25 -1 7.25 -1 5 C-0.34 4.67 0.32 4.34 1 4 C0.67 2.68 0.34 1.36 0 0 Z " fill="#7F4889" transform="translate(42,369)"/>
<path d="M0 0 C6.625 -0.125 6.625 -0.125 10 1 C10 1.66 10 2.32 10 3 C12.31 3 14.62 3 17 3 C17 3.99 17 4.98 17 6 C5.47835991 2.92482916 5.47835991 2.92482916 0 1 C0 0.67 0 0.34 0 0 Z " fill="#956C99" transform="translate(373,343)"/>
<path d="M0 0 C1.66666667 0 3.33333333 0 5 0 C5.33 1.65 5.66 3.3 6 5 C3.35261084 6.4606285 2.10551666 7 -1 7 C-0.67 4.69 -0.34 2.38 0 0 Z " fill="#784083" transform="translate(17,178)"/>
<path d="M0 0 C3.67056937 1.47797262 5.41085783 3.47615477 7.75 6.625 C8.67039062 7.85089844 8.67039062 7.85089844 9.609375 9.1015625 C10.29773438 10.04128906 10.29773438 10.04128906 11 11 C10.01 11 9.02 11 8 11 C6.33333333 9.33333333 4.66666667 7.66666667 3 6 C2.443125 5.505 1.88625 5.01 1.3125 4.5 C0 3 0 3 0 0 Z " fill="#8A618C" transform="translate(437,93)"/>
<path d="M0 0 C4.83256305 0.41421969 6.82679218 2.46413986 10 6 C9.67 6.99 9.34 7.98 9 9 C7.49704815 7.69088122 5.99770689 6.37761608 4.5 5.0625 C3.6646875 4.33160156 2.829375 3.60070312 1.96875 2.84765625 C1.3190625 2.23792969 0.669375 1.62820313 0 1 C0 0.67 0 0.34 0 0 Z " fill="#845D8A" transform="translate(78,423)"/>
<path d="M0 0 C9.26956522 1.16521739 9.26956522 1.16521739 12.1875 4.5 C13 7 13 7 12 9 C11.505 8.4225 11.01 7.845 10.5 7.25 C7.31474573 4.38327116 3.8737009 2.76761109 0 1 C0 0.67 0 0.34 0 0 Z " fill="#936A95" transform="translate(391,349)"/>
<path d="M0 0 C0.66 0.33 1.32 0.66 2 1 C1.67 7.6 1.34 14.2 1 21 C0.67 21 0.34 21 0 21 C-0.19569589 18.43788925 -0.38180612 15.87567609 -0.5625 13.3125 C-0.61857422 12.59126953 -0.67464844 11.87003906 -0.73242188 11.12695312 C-0.99955159 7.22685936 -1.00887596 3.78888972 0 0 Z " fill="#652D6A" transform="translate(159,338)"/>
<path d="M0 0 C1.22332031 -0.01675781 2.44664062 -0.03351563 3.70703125 -0.05078125 C7.36153276 0.33066504 9.24065674 1.18515982 12.1875 3.3125 C9.5208581 4.64582095 8.02069697 3.98352033 5.1875 3.3125 C5.1875 2.6525 5.1875 1.9925 5.1875 1.3125 C0.5675 1.6425 -4.0525 1.9725 -8.8125 2.3125 C-5.96836999 -0.53163001 -3.96242841 0.01244742 0 0 Z " fill="#A175A1" transform="translate(144.8125,327.6875)"/>
<path d="M0 0 C3.10190545 4.65285818 4.33846504 9.41532676 4 15 C3.01 14.34 2.02 13.68 1 13 C0.8125 10.375 0.8125 10.375 1 8 C0.01 8 -0.98 8 -2 8 C-1.67 6.68 -1.34 5.36 -1 4 C-0.67 4 -0.34 4 0 4 C0 2.68 0 1.36 0 0 Z " fill="#946897" transform="translate(155,201)"/>
<path d="M0 0 C2.29633824 3.44450737 2.54016485 5.93812283 3 10 C2.01 10 1.02 10 0 10 C0 8.68 0 7.36 0 6 C-0.66 6 -1.32 6 -2 6 C-2.33 4.68 -2.66 3.36 -3 2 C-2.34 2 -1.68 2 -1 2 C-0.67 1.34 -0.34 0.68 0 0 Z " fill="#7A4C7F" transform="translate(484,177)"/>
<path d="M0 0 C0.33 0 0.66 0 1 0 C1.05429959 1.74965358 1.09292823 3.49979787 1.125 5.25 C1.14820313 6.22453125 1.17140625 7.1990625 1.1953125 8.203125 C0.99862781 11.0196498 0.44568916 12.60949036 -1 15 C-2.66666667 15 -4.33333333 15 -6 15 C-6 14.34 -6 13.68 -6 13 C-4.68 12.67 -3.36 12.34 -2 12 C-1.34 8.04 -0.68 4.08 0 0 Z " fill="#916696" transform="translate(258,366)"/>
<path d="M0 0 C0.99 0.495 0.99 0.495 2 1 C2.33 1.99 2.66 2.98 3 4 C3.66 4 4.32 4 5 4 C6.125 6.8125 6.125 6.8125 7 10 C6.01 11.485 6.01 11.485 5 13 C0.59225513 4.738041 0.59225513 4.738041 0 0 Z " fill="#7B4A7F" transform="translate(178,313)"/>
<path d="M0 0 C-2.54782974 2.97246802 -5.45340883 4.41535288 -9 6 C-9.66 6 -10.32 6 -11 6 C-11 5.34 -11 4.68 -11 4 C-10.34 4 -9.68 4 -9 4 C-8.67 3.01 -8.34 2.02 -8 1 C-5.07175348 0.02391783 -3.04386724 -0.08226668 0 0 Z " fill="#905C8F" transform="translate(370,463)"/>
<path d="M0 0 C1.9375 0.6875 1.9375 0.6875 2.9375 2.6875 C5.96684491 3.34522428 5.96684491 3.34522428 8.9375 3.6875 C8.9375 4.0175 8.9375 4.3475 8.9375 4.6875 C5.6375 4.6875 2.3375 4.6875 -1.0625 4.6875 C-1.3925 3.6975 -1.7225 2.7075 -2.0625 1.6875 C-2.7225 1.3575 -3.3825 1.0275 -4.0625 0.6875 C-2.0625 -0.3125 -2.0625 -0.3125 0 0 Z " fill="#926293" transform="translate(238.0625,382.3125)"/>
<path d="M0 0 C0.66 0 1.32 0 2 0 C1.74438677 2.3431213 1.40729228 4.67843403 1 7 C0.01 7.495 0.01 7.495 -1 8 C-1.40729228 10.32156597 -1.74438677 12.6568787 -2 15 C-2.33 15 -2.66 15 -3 15 C-3.14285714 6.42857143 -3.14285714 6.42857143 -2 3 C-1.34 3 -0.68 3 0 3 C0 2.01 0 1.02 0 0 Z " fill="#622968" transform="translate(226,336)"/>
<path d="M0 0 C2.91488977 2.6234008 4.88503898 5.71816394 7 9 C6.67 9.66 6.34 10.32 6 11 C1.125 6.375 1.125 6.375 0 3 C-0.66 2.67 -1.32 2.34 -2 2 C-1.34 2 -0.68 2 0 2 C0 1.34 0 0.68 0 0 Z " fill="#845A88" transform="translate(454,114)"/>
<path d="M0 0 C2 1 2 1 3.125 3.8125 C4 7 4 7 4 11 C3.34 11 2.68 11 2 11 C2 10.01 2 9.02 2 8 C1.34 8 0.68 8 0 8 C-1.125 2.25 -1.125 2.25 0 0 Z " fill="#632964" transform="translate(115,212)"/>
<path d="M0 0 C0.33 0 0.66 0 1 0 C0.93981983 2.25073828 0.85098794 4.50072325 0.75 6.75 C0.68039063 8.62945312 0.68039063 8.62945312 0.609375 10.546875 C-0.07150347 14.40518636 -0.98126522 15.60916205 -4 18 C-3.35155914 13.80716882 -2.48783354 9.73500079 -1.4375 5.625 C-1.16808594 4.56539062 -0.89867187 3.50578125 -0.62109375 2.4140625 C-0.31365234 1.21910156 -0.31365234 1.21910156 0 0 Z " fill="#A17A9F" transform="translate(194,169)"/>
<path d="M0 0 C0.66 0 1.32 0 2 0 C3.76171875 2.046875 3.76171875 2.046875 5.6875 4.75 C6.33074219 5.63171875 6.97398437 6.5134375 7.63671875 7.421875 C9 10 9 10 8.70703125 12.328125 C8.47371094 12.87984375 8.24039062 13.4315625 8 14 C6.66397562 11.85580015 5.33107996 9.70976582 4 7.5625 C3.6184375 6.95083984 3.236875 6.33917969 2.84375 5.70898438 C0 1.11328125 0 1.11328125 0 0 Z " fill="#92AB62" transform="translate(258,160)"/>
<path d="M0 0 C1.65 0.33 3.3 0.66 5 1 C2.75 3.5 2.75 3.5 0 6 C-1.32 6 -2.64 6 -4 6 C-3.67 4.68 -3.34 3.36 -3 2 C-1.02 2.495 -1.02 2.495 1 3 C0.67 2.01 0.34 1.02 0 0 Z " fill="#A17F9F" transform="translate(128,310)"/>
<path d="M0 0 C6.27824112 0.71751327 9.77186766 4.61527016 14 9 C9.344271 8.72613359 7.41338172 6.75471989 4.4296875 3.47265625 C2.86604783 1.75859105 2.86604783 1.75859105 0 0 Z " fill="#633E58" transform="translate(284,196)"/>
<path d="M0 0 C4.31395349 8.01162791 4.31395349 8.01162791 3.625 12.375 C3.41875 12.91125 3.2125 13.4475 3 14 C2.731875 13.401875 2.46375 12.80375 2.1875 12.1875 C1.01506533 10.02775192 -0.19369282 8.64209744 -2 7 C-1.34 7 -0.68 7 0 7 C0 4.69 0 2.38 0 0 Z " fill="#936695" transform="translate(108,181)"/>
<path d="M0 0 C1.32 0.66 2.64 1.32 4 2 C2.21189234 2.69670416 0.41937948 3.38211189 -1.375 4.0625 C-2.37273437 4.44535156 -3.37046875 4.82820313 -4.3984375 5.22265625 C-7 6 -7 6 -9 5 C-8.67 4.34 -8.34 3.68 -8 3 C-5.35139573 2.40644386 -2.70802678 2.25790731 0 2 C0 1.34 0 0.68 0 0 Z " fill="#845E89" transform="translate(334,477)"/>
<path d="M0 0 C0 0.99 0 1.98 0 3 C-0.99 3.495 -0.99 3.495 -2 4 C-1.67 4.66 -1.34 5.32 -1 6 C-3.97 6 -6.94 6 -10 6 C-2.6 0 -2.6 0 0 0 Z " fill="#936593" transform="translate(259,399)"/>
<path d="M0 0 C2.8125 -0.1875 2.8125 -0.1875 6 0 C6.99 0.99 7.98 1.98 9 3 C4.38 3 -0.24 3 -5 3 C-5 2.67 -5 2.34 -5 2 C-3.35 1.67 -1.7 1.34 0 1 C0 0.67 0 0.34 0 0 Z " fill="#965E97" transform="translate(153,303)"/>
<path d="M0 0 C1.8871875 0.0309375 1.8871875 0.0309375 3.8125 0.0625 C3.4825 0.7225 3.1525 1.3825 2.8125 2.0625 C-1.63250224 3.39600067 -5.5193831 4.35425731 -10.1875 4.0625 C-9.1975 3.7325 -8.2075 3.4025 -7.1875 3.0625 C-7.1875 2.4025 -7.1875 1.7425 -7.1875 1.0625 C-4.43671116 0.14557039 -2.82801087 -0.04636083 0 0 Z " fill="#946697" transform="translate(246.1875,208.9375)"/>
<path d="M0 0 C2.76223278 2.76223278 2.57856291 5.20706617 3 9 C2.01 9.495 2.01 9.495 1 10 C-1.56687367 6.1496895 -0.83288724 4.41430237 0 0 Z " fill="#652668" transform="translate(109,190)"/>
<path d="M0 0 C-1.01320313 0.48919922 -1.01320313 0.48919922 -2.046875 0.98828125 C-3.38492187 1.64376953 -3.38492187 1.64376953 -4.75 2.3125 C-5.63171875 2.74175781 -6.5134375 3.17101562 -7.421875 3.61328125 C-9.81600215 4.90103146 -11.87776958 6.30915754 -14 8 C-12.50521886 4.19510255 -10.30557786 2.33809165 -7 0 C-3.86650268 -1.04449911 -3.01031744 -0.93423645 0 0 Z " fill="#5F4055" transform="translate(352,85)"/>
<path d="M0 0 C0.91007812 0.10183594 1.82015625 0.20367187 2.7578125 0.30859375 C3.45648438 0.39238281 4.15515625 0.47617188 4.875 0.5625 C3.555 0.8925 2.235 1.2225 0.875 1.5625 C0.875 2.2225 0.875 2.8825 0.875 3.5625 C-1.4681213 3.30688677 -3.80343403 2.96979228 -6.125 2.5625 C-6.455 1.9025 -6.785 1.2425 -7.125 0.5625 C-4.50184968 -0.74907516 -2.89466564 -0.33399988 0 0 Z " fill="#7C4E81" transform="translate(300.125,10.4375)"/>
<path d="M0 0 C0.66 0 1.32 0 2 0 C2 0.66 2 1.32 2 2 C2.66 2 3.32 2 4 2 C4.33 3.65 4.66 5.3 5 7 C2.0625 6.1875 2.0625 6.1875 -1 5 C-1.33 4.01 -1.66 3.02 -2 2 C-1.34 1.34 -0.68 0.68 0 0 Z " fill="#804986" transform="translate(368,336)"/>
<path d="M0 0 C1.64846769 0.44876616 3.29373455 0.90930488 4.9375 1.375 C5.85402344 1.63023438 6.77054687 1.88546875 7.71484375 2.1484375 C10 3 10 3 11 5 C8.36 5.33 5.72 5.66 3 6 C3.33 4.68 3.66 3.36 4 2 C2.68 1.67 1.36 1.34 0 1 C0 0.67 0 0.34 0 0 Z " fill="#8F5A92" transform="translate(341,23)"/>
<path d="M0 0 C-5.625 4 -5.625 4 -9 4 C-8.67 2.68 -8.34 1.36 -8 0 C-4.94736336 -0.98120464 -3.05263664 -0.98120464 0 0 Z " fill="#825380" transform="translate(379,459)"/>
<path d="M0 0 C2.475 0.495 2.475 0.495 5 1 C5 1.99 5 2.98 5 4 C5.99 4.33 6.98 4.66 8 5 C8.6875 7.0625 8.6875 7.0625 9 9 C4.44984107 7.48328036 2.49942736 3.83108947 0 0 Z " fill="#936892" transform="translate(69,413)"/>
<path d="M0 0 C2.38672669 2.96283313 4.7353371 5.94270509 7 9 C4.69 8.34 2.38 7.68 0 7 C0 4.69 0 2.38 0 0 Z " fill="#935D90" transform="translate(202,388)"/>
<path d="M0 0 C0.94875 0.04125 1.8975 0.0825 2.875 0.125 C2.215 1.775 1.555 3.425 0.875 5.125 C0.545 4.465 0.215 3.805 -0.125 3.125 C-0.785 3.125 -1.445 3.125 -2.125 3.125 C-2.455 3.785 -2.785 4.445 -3.125 5.125 C-3.785 4.135 -4.445 3.145 -5.125 2.125 C-3.125 0.125 -3.125 0.125 0 0 Z " fill="#7C437F" transform="translate(462.125,367.875)"/>
<path d="M0 0 C0.33 1.32 0.66 2.64 1 4 C2.65 3.34 4.3 2.68 6 2 C5.67 3.98 5.34 5.96 5 8 C1.125 6.125 1.125 6.125 0 5 C-0.04063832 3.33382885 -0.042721 1.66611905 0 0 Z " fill="#8D5591" transform="translate(362,332)"/>
<path d="M0 0 C2.34914492 2.34914492 2.73140357 3.95679446 3.625 7.125 C3.88539063 8.03507813 4.14578125 8.94515625 4.4140625 9.8828125 C4.70410156 10.93082031 4.70410156 10.93082031 5 12 C2.5 9.9375 2.5 9.9375 0 7 C-0.3125 3.1875 -0.3125 3.1875 0 0 Z " fill="#8D628F" transform="translate(476,155)"/>
<path d="M0 0 C4.22797927 2.99481865 4.22797927 2.99481865 6 5 C6.375 8.3125 6.375 8.3125 6 11 C5.62875 10.0409375 5.62875 10.0409375 5.25 9.0625 C4.18437567 6.81258459 4.18437567 6.81258459 1.875 6.25 C1.25625 6.1675 0.6375 6.085 0 6 C0 4.02 0 2.04 0 0 Z " fill="#632C6A" transform="translate(443,101)"/>
<path d="M0 0 C1.49080078 0.02707031 1.49080078 0.02707031 3.01171875 0.0546875 C3.77097656 0.07789063 4.53023437 0.10109375 5.3125 0.125 C0.37202306 2.68402083 -3.20153082 3.53567779 -8.6875 2.125 C-5.26655758 -0.15562828 -4.00562778 -0.09425007 0 0 Z " fill="#946797" transform="translate(241.6875,326.875)"/>
<path d="M0 0 C2.71566987 2.34307137 2.9773321 2.74158599 3.3125 6.5625 C3 10 3 10 1 12 C0.03929566 9.11788698 -0.10581883 7.30149956 -0.0625 4.3125 C-0.05347656 3.50425781 -0.04445313 2.69601562 -0.03515625 1.86328125 C-0.02355469 1.24839844 -0.01195312 0.63351562 0 0 Z " fill="#682369" transform="translate(11,285)"/>
<path d="M0 0 C3 2 3 2 3.75 5.5625 C3.8325 6.696875 3.915 7.83125 4 9 C3 10 3 10 -0.0625 10.0625 C-1.031875 10.041875 -2.00125 10.02125 -3 10 C0 8 0 8 2 8 C1.67 7.236875 1.34 6.47375 1 5.6875 C0 3 0 3 0 0 Z " fill="#A67DA5" transform="translate(250,213)"/>
<path d="M0 0 C1 3 1 3 0.25 5.125 C-1 7 -1 7 -4 8 C-4.33 8.66 -4.66 9.32 -5 10 C-5.66 9.67 -6.32 9.34 -7 9 C-4.69 6.03 -2.38 3.06 0 0 Z " fill="#906996" transform="translate(64,92)"/>
<path d="M0 0 C0.28875 0.598125 0.5775 1.19625 0.875 1.8125 C2.04742026 4.19327792 2.04742026 4.19327792 4 7 C3.01 7.33 2.02 7.66 1 8 C1 7.01 1 6.02 1 5 C0.67 5.66 0.34 6.32 0 7 C-0.66 7 -1.32 7 -2 7 C-1.125 1.125 -1.125 1.125 0 0 Z " fill="#936195" transform="translate(335,392)"/>
<path d="M0 0 C1.98 0.99 1.98 0.99 4 2 C4 4.64 4 7.28 4 10 C1.7448078 7.7448078 1.02276532 5.9952413 0 3 C0 2.01 0 1.02 0 0 Z " fill="#875C87" transform="translate(26,344)"/>
<path d="M0 0 C-1.6875 2.0625 -1.6875 2.0625 -4 4 C-6.75 3.75 -6.75 3.75 -9 3 C-9 2.34 -9 1.68 -9 1 C-5.8035914 -0.06546953 -3.34252724 -0.07427838 0 0 Z " fill="#693473" transform="translate(231,182)"/>
<path d="M0 0 C1.60226148 4.00565371 0.47694566 7.08609399 -1 11 C-1.99 11.33 -2.98 11.66 -4 12 C-2.66666667 8 -1.33333333 4 0 0 Z " fill="#9A79A0" transform="translate(409,381)"/>
<path d="M0 0 C1.3609623 2.7219246 0.70366248 4.1831957 0.0625 7.125 C-0.13214844 8.03507813 -0.32679688 8.94515625 -0.52734375 9.8828125 C-0.68332031 10.58148438 -0.83929688 11.28015625 -1 12 C-1.33 12 -1.66 12 -2 12 C-2.33 8.7 -2.66 5.4 -3 2 C-2.01 1.34 -1.02 0.68 0 0 Z " fill="#A683A7" transform="translate(204,183)"/>
<path d="M0 0 C0.33 0 0.66 0 1 0 C1.07654536 4.51617599 1.10228696 8.59085217 0 13 C-0.33 13 -0.66 13 -1 13 C-1.33 9.7 -1.66 6.4 -2 3 C-1.34 3 -0.68 3 0 3 C0 2.01 0 1.02 0 0 Z " fill="#A67CA4" transform="translate(175,182)"/>
<path d="M0 0 C3.465 1.485 3.465 1.485 7 3 C4.24075815 4.80411967 3.11027897 5.0127245 -0.25 4.625 C-1.1575 4.41875 -2.065 4.2125 -3 4 C-3 3.34 -3 2.68 -3 2 C-2.01 2 -1.02 2 0 2 C0 1.34 0 0.68 0 0 Z " fill="#8B6290" transform="translate(366,34)"/>
<path d="M0 0 C-2.91765 1.9451 -4.62537285 2.45276317 -8 3 C-7.67 2.01 -7.34 1.02 -7 0 C-4.3333581 -1.33332095 -2.83319697 -0.67102033 0 0 Z " fill="#7F4B80" transform="translate(346,475)"/>
<path d="M0 0 C0.66 0 1.32 0 2 0 C2 0.99 2 1.98 2 3 C2.66 3.33 3.32 3.66 4 4 C0.25 7 0.25 7 -2 7 C-1.34 4.69 -0.68 2.38 0 0 Z " fill="#874D82" transform="translate(393,443)"/>
<path d="M0 0 C0.66 0 1.32 0 2 0 C2.66 1.32 3.32 2.64 4 4 C2.68 4.99 1.36 5.98 0 7 C-0.38133299 5.0085944 -0.71325582 3.00720923 -1 1 C-0.67 0.67 -0.34 0.34 0 0 Z " fill="#8E5992" transform="translate(421,419)"/>
<path d="M0 0 C0 2.31 0 4.62 0 7 C-2 5.6875 -2 5.6875 -4 4 C-4 3.01 -4 2.02 -4 1 C-1 0 -1 0 0 0 Z " fill="#7E4983" transform="translate(69,406)"/>
<path d="M0 0 C0.99 1.32 1.98 2.64 3 4 C2.01 4.495 2.01 4.495 1 5 C0.67 5.66 0.34 6.32 0 7 C-0.99 5.02 -1.98 3.04 -3 1 C-2.01 0.67 -1.02 0.34 0 0 Z " fill="#804F82" transform="translate(52,386)"/>
<path d="M0 0 C2.45823172 3.68734758 3.01242616 6.69699971 4 11 C3.01 10.67 2.02 10.34 1 10 C0.37542727 6.56484998 0 3.50935186 0 0 Z " fill="#976A90" transform="translate(196,372)"/>
<path d="M0 0 C0.33 0.66 0.66 1.32 1 2 C-1.75 4.0625 -1.75 4.0625 -5 6 C-6.32 5.67 -7.64 5.34 -9 5 C-6.03 3.35 -3.06 1.7 0 0 Z " fill="#623464" transform="translate(365,205)"/>
<path d="M0 0 C0.33 0.99 0.66 1.98 1 3 C-0.40445835 5.2636564 -2.1967913 7.0208685 -4 9 C-5 6 -5 6 -4 3 C-3.01 2.67 -2.02 2.34 -1 2 C-0.67 1.34 -0.34 0.68 0 0 Z " fill="#93B357" transform="translate(389,177)"/>
<path d="M0 0 C1.65 1.65 3.3 3.3 5 5 C3.35 5.33 1.7 5.66 0 6 C-1.125 2.25 -1.125 2.25 0 0 Z " fill="#855A8C" transform="translate(410,64)"/>
<path d="M0 0 C0.66 0.66 1.32 1.32 2 2 C0.35830472 4.02054804 -1.30911778 6.02043058 -3 8 C-3.33 8 -3.66 8 -4 8 C-4.25 5.6875 -4.25 5.6875 -4 3 C-2 1.1875 -2 1.1875 0 0 Z " fill="#87558A" transform="translate(430,413)"/>
<path d="M0 0 C2.15377564 2.62198774 3.40072174 4.64404172 4 8 C2.0625 7.25 2.0625 7.25 0 6 C-0.8125 4 -0.8125 4 -1 2 C-0.67 1.34 -0.34 0.68 0 0 Z " fill="#88628E" transform="translate(472,146)"/>
<path d="M0 0 C2 3 2 3 1.7578125 5.04296875 C1.171875 7.02864583 0.5859375 9.01432292 0 11 C-0.33 11 -0.66 11 -1 11 C-1.33 8.03 -1.66 5.06 -2 2 C-1.34 2 -0.68 2 0 2 C0 1.34 0 0.68 0 0 Z " fill="#88628B" transform="translate(141,147)"/>
<path d="M0 0 C4 4.625 4 4.625 4 8 C2.68 7.34 1.36 6.68 0 6 C0 4.02 0 2.04 0 0 Z " fill="#9D7A9F" transform="translate(449,106)"/>
<path d="M0 0 C5.75 -0.125 5.75 -0.125 8 1 C8 1.66 8 2.32 8 3 C5.36 2.67 2.72 2.34 0 2 C0 1.34 0 0.68 0 0 Z " fill="#95B657" transform="translate(300,83)"/>
<path d="M0 0 C0.86625 0.3403125 0.86625 0.3403125 1.75 0.6875 C0 2.25 0 2.25 -2.25 3.6875 C-4.5 3.375 -4.5 3.375 -6.25 2.6875 C-2.80384615 -0.38942308 -2.80384615 -0.38942308 0 0 Z " fill="#90628E" transform="translate(399.25,399.3125)"/>
<path d="M0 0 C0 3 0 3 -2 5.1875 C-2.66 5.785625 -3.32 6.38375 -4 7 C-4 5.35 -4 3.7 -4 2 C-2.68 1.34 -1.36 0.68 0 0 Z " fill="#966B98" transform="translate(451,389)"/>
<path d="M0 0 C0.99 0 1.98 0 3 0 C2.45276317 3.37462715 1.9451 5.08235 0 8 C-0.79953138 4.71303767 -1.09658936 3.28976808 0 0 Z " fill="#86618C" transform="translate(480,327)"/>
<path d="M0 0 C-1.36983503 3.16115776 -1.9890638 3.9927092 -5 6 C-5 4.35 -5 2.7 -5 1 C-3 0 -3 0 0 0 Z " fill="#996A9A" transform="translate(350,312)"/>
<path d="M0 0 C0.66 0 1.32 0 2 0 C1.67 1.65 1.34 3.3 1 5 C0.67 4.34 0.34 3.68 0 3 C-1.65 3.33 -3.3 3.66 -5 4 C-5.33 3.01 -5.66 2.02 -6 1 C-4.7934375 1.0309375 -4.7934375 1.0309375 -3.5625 1.0625 C-1.06645115 1.29633621 -1.06645115 1.29633621 0 0 Z " fill="#64276A" transform="translate(250,206)"/>
<path d="M0 0 C1.2380014 3.57644848 0.74926071 6.33694766 0 10 C-0.66 10 -1.32 10 -2 10 C-1.125 2.25 -1.125 2.25 0 0 Z " fill="#632B64" transform="translate(188,197)"/>
<path d="M0 0 C2 3 2 3 2 6 C0.68 5.67 -0.64 5.34 -2 5 C-2 3.68 -2 2.36 -2 1 C-1.34 0.67 -0.68 0.34 0 0 Z " fill="#91BB51" transform="translate(269,170)"/>
<path d="M0 0 C1.98 0.495 1.98 0.495 4 1 C3.67 2.32 3.34 3.64 3 5 C1.68 4.67 0.36 4.34 -1 4 C-0.67 2.68 -0.34 1.36 0 0 Z " fill="#733B77" transform="translate(44,119)"/>
<path d="M0 0 C0.66 0.33 1.32 0.66 2 1 C2.33 1.99 2.66 2.98 3 4 C2.02149805 5.02104551 1.02019573 6.0206121 0 7 C-0.33 7 -0.66 7 -1 7 C-0.67 4.69 -0.34 2.38 0 0 Z " fill="#64286C" transform="translate(50,112)"/>
<path d="M0 0 C1.98 1.65 3.96 3.3 6 5 C5.67 5.66 5.34 6.32 5 7 C2 6 2 6 0 3 C0 2.01 0 1.02 0 0 Z " fill="#865A87" transform="translate(430,84)"/>
</svg>
